<?xml version="1.0" encoding="utf-8"?>
<!-- Generator: Adobe Illustrator 22.1.0, SVG Export Plug-In . SVG Version: 6.00 Build 0)  -->
<svg version="1.1" id="Layer_1" xmlns="http://www.w3.org/2000/svg" xmlns:xlink="http://www.w3.org/1999/xlink" x="0px" y="0px"
	 viewBox="0 0 400 300" style="enable-background:new 0 0 400 300;" xml:space="preserve">
<style type="text/css">
	.st0{display:none;}
	.st1{display:inline;}
	.st2{fill:#F8BA49;}
	.st3{fill:#333333;}
	.st4{fill:#F7BA48;}
	.st5{display:inline;fill:#010101;}
	.st6{display:inline;fill:#F8BA49;}
	.st7{display:inline;fill:#333333;}
	.st8{display:inline;fill:#109DD1;}
	.st9{fill:#159DD2;}
	.st10{display:inline;fill:#FFFFFF;}
	.st11{display:inline;fill:#159DD2;}
	.st12{fill:#1A9DD2;}
	.st13{display:inline;fill:#1A9DD2;}
	.st14{fill:#FFFFFF;}
</style>
<g id="Optimized_Travel" class="st0">
	<g class="st1">
		<path class="st2" d="M171.8,93.6c-20.7,0-37.6-16.9-37.6-37.6s16.9-37.6,37.6-37.6s37.6,16.9,37.6,37.6S192.5,93.6,171.8,93.6z"/>
		<path class="st2" d="M171.8,187.6c-20.7,0-37.6-16.9-37.6-37.6s16.9-37.6,37.6-37.6s37.6,16.9,37.6,37.6S192.5,187.6,171.8,187.6z
			"/>
		<path class="st2" d="M171.8,281.6c-20.7,0-37.6-16.9-37.6-37.6s16.9-37.6,37.6-37.6s37.6,16.9,37.6,37.6S192.5,281.6,171.8,281.6z
			"/>
	</g>
	<g class="st1">
		<path class="st3" d="M345.7,244v-37.6h-17.4c-0.7-1.9-1.4-3.7-2.3-5.5l12.3-12.3l-26.6-26.6l-12.3,12.3c-1.8-0.8-3.6-1.6-5.5-2.3
			v-17.4h-14.1l9.4-12.5v-25.1h-47V88.9h16.4l30.5-40.7V23.1h-47V4.3h-141v18.8h-47v25.1l30.5,40.7h16.4v28.2h-47v25.1l30.5,40.7
			h16.4v28.2h-47v25.1l30.5,40.7h16.4v18.8h141v-11l8.6-8.6c1.8,0.8,3.6,1.6,5.5,2.3v17.4H294v-17.4c1.9-0.7,3.7-1.4,5.5-2.3
			l12.3,12.3l26.6-26.6L326,249.5c0.8-1.8,1.6-3.6,2.3-5.5L345.7,244L345.7,244z M279.9,126.5V139l-11.7,15.7h-11.8v17.4
			c-1.9,0.7-3.7,1.4-5.5,2.3l-8.6-8.6v-39.2H279.9z M279.9,32.5v12.5L254,79.5h-11.7v-47H279.9z M89.6,79.5L63.7,45.1V32.5h37.6v47
			H89.6z M89.6,173.5L63.7,139v-12.5h37.6v47H89.6z M89.6,267.5L63.7,233v-12.5h37.6v47H89.6z M110.7,286.3V13.7h122.2v154.1
			l-20.8,20.8l12.3,12.3c-0.8,1.8-1.6,3.6-2.3,5.5h-17.4V244h17.4c0.7,1.9,1.4,3.7,2.3,5.5l-12.3,12.3l20.8,20.8v3.7H110.7z
			 M325,261.7L311.7,275l-10.6-10.6l-3.1,1.7c-3.1,1.7-6.5,3.1-10.1,4.2l-3.4,1v14.9h-18.8v-14.9l-3.4-1c-3.6-1-6.9-2.4-10.1-4.2
			l-3.1-1.7L238.6,275l-13.3-13.3l10.6-10.6l-1.7-3.1c-1.7-3.1-3.1-6.5-4.2-10.1l-1-3.4h-14.9v-18.8H229l1-3.4
			c1-3.6,2.4-6.9,4.2-10.1l1.7-3.1l-10.6-10.6l13.3-13.3l10.6,10.6l3.1-1.7c3.1-1.7,6.5-3.1,10.1-4.2l3.4-1v-14.9h18.8V179l3.4,1
			c3.6,1,6.9,2.4,10.1,4.2l3.1,1.7l10.6-10.6l13.3,13.3l-10.6,10.6l1.7,3.1c1.7,3.1,3.1,6.5,4.2,10.1l1,3.4h14.9v18.8h-14.9l-1,3.4
			c-1,3.6-2.4,6.9-4.2,10.1l-1.7,3.1L325,261.7z"/>
	</g>
	<g class="st1">
		<g>
			<path class="st3" d="M267.6,220.6c-2.1,5.1,0.3,11,5.5,13.1c5.1,2.1,11-0.3,13.1-5.5c2.1-5.1-0.3-11-5.5-13.1
				c-0.5-0.2-1.1-0.4-1.6-0.5l-9.2-28.1l-6.4,2.1l8.8,26.8C270.2,216.6,268.5,218.3,267.6,220.6z M279.9,225.7
				c-0.7,1.7-2.7,2.5-4.4,1.8c-1.7-0.7-2.5-2.7-1.8-4.4s2.7-2.5,4.4-1.8C279.8,222.1,280.7,224,279.9,225.7z"/>
			<path class="st3" d="M272.3,261.8l0.5-6.7c-15.5-1.3-27.6-14.5-27.6-30c0-7.4,2.7-14.5,7.6-20l-5-4.5c-6,6.8-9.3,15.4-9.3,24.4
				C238.5,244.1,253.3,260.2,272.3,261.8z"/>
		</g>
	</g>
</g>
<g id="Easy_Parking" class="st0">
	<g class="st1">
		<g>
			<g>
				<path class="st2" d="M99.9,165.7c-9.5,0-17.2-7.7-17.2-17.2c0-9.5,7.7-17.2,17.2-17.2s17.2,7.7,17.2,17.2
					C117.1,157.9,109.3,165.7,99.9,165.7z M99.9,141.1c-4.1,0-7.4,3.3-7.4,7.4c0,4.1,3.3,7.4,7.4,7.4s7.4-3.3,7.4-7.4
					C107.2,144.4,103.9,141.1,99.9,141.1z"/>
			</g>
		</g>
		<g>
			<g>
				<path class="st2" d="M134.3,165.7c-9.5,0-17.2-7.7-17.2-17.2c0-9.5,7.7-17.2,17.2-17.2c9.5,0,17.2,7.7,17.2,17.2
					C151.5,157.9,143.7,165.7,134.3,165.7z M134.3,141.1c-4.1,0-7.4,3.3-7.4,7.4c0,4.1,3.3,7.4,7.4,7.4c4.1,0,7.4-3.3,7.4-7.4
					C141.6,144.4,138.3,141.1,134.3,141.1z"/>
			</g>
		</g>
		<g>
			<g>
				<path class="st2" d="M267,165.7c-9.5,0-17.2-7.7-17.2-17.2c0-9.5,7.7-17.2,17.2-17.2c9.5,0,17.2,7.7,17.2,17.2
					C284.2,157.9,276.5,165.7,267,165.7z M267,141.1c-4.1,0-7.4,3.3-7.4,7.4c0,4.1,3.3,7.4,7.4,7.4c4.1,0,7.4-3.3,7.4-7.4
					C274.4,144.4,271,141.1,267,141.1z"/>
			</g>
		</g>
		<g>
			<g>
				<path class="st2" d="M301.4,165.7c-9.5,0-17.2-7.7-17.2-17.2c0-9.5,7.7-17.2,17.2-17.2c9.5,0,17.2,7.7,17.2,17.2
					C318.6,157.9,310.9,165.7,301.4,165.7z M301.4,141.1c-4.1,0-7.4,3.3-7.4,7.4c0,4.1,3.3,7.4,7.4,7.4s7.4-3.3,7.4-7.4
					C308.8,144.4,305.5,141.1,301.4,141.1z"/>
			</g>
		</g>
		<g>
			<path class="st3" d="M161.3,13.3H126c-7.6,0-13.9,5.7-14.7,13.4L106,82.1H87.6v-9.8H67.9c-10.8,0-19.7,8.8-19.7,19.7
				s8.8,19.7,19.7,19.7h19.7v-1.1l10.1,6.1h-0.3c-16.3,0-29.5,13.2-29.5,29.5v49.2c-8.1,0-14.7,6.6-14.7,14.7v19.7
				c0,8.1,6.6,14.7,14.7,14.7h4.9v22.1c0,12.2,9.9,22.1,22.1,22.1s22.1-9.9,22.1-22.1v-22.1h167.1v22.1c0,12.2,9.9,22.1,22.1,22.1
				c12.2,0,22.1-9.9,22.1-22.1v-22.1h4.9c8.1,0,14.7-6.6,14.7-14.7v-19.7c0-8.1-6.6-14.7-14.7-14.7V146c0-16.3-13.2-29.5-29.5-29.5
				h-0.3l10.1-6.1v1.1h19.7c10.8,0,19.7-8.8,19.7-19.7s-8.8-19.7-19.7-19.7h-19.7v9.8h-18.5l-5.3-55.5c-0.7-7.6-7-13.3-14.7-13.3
				h-35.3 M323.5,82.1h9.8c5.4,0,9.8,4.4,9.8,9.8c0,5.4-4.4,9.8-9.8,9.8h-9.8V82.1z M313.7,91.9v7l-16,9.6l-1.6-16.6H313.7z
				 M230.1,13.3h-59 M121.1,27.6c0.2-2.5,2.3-4.5,4.9-4.5h35.3h78.6h35.3c2.6,0,4.7,1.9,4.9,4.4l8.5,88.9h-176L121.1,27.6z
				 M232.1,155.8h-63.1l-0.8-9.8H233L232.1,155.8z M231.3,165.7l-0.8,9.8h-59.8l-0.8-9.8H231.3z M233.8,136.2h-66.3l-0.8-9.8h68
				L233.8,136.2z M77.7,101.8h-9.8c-5.4,0-9.8-4.4-9.8-9.8c0-5.4,4.4-9.8,9.8-9.8h9.8V101.8z M87.6,91.9h17.5l-1.6,16.6l-16-9.6
				L87.6,91.9L87.6,91.9z M77.7,146c0-10.8,8.8-19.7,19.7-19.7h4.4h55l4.2,50c0.4,5.1,4.7,9,9.8,9h59.8c5.1,0,9.4-4,9.8-9l4.2-50h55
				h4.4c10.8,0,19.7,8.8,19.7,19.7v49.2H77.7V146z M107.2,266.4c0,6.8-5.5,12.3-12.3,12.3s-12.3-5.5-12.3-12.3v-22.1h24.6
				C107.2,244.3,107.2,266.4,107.2,266.4z M318.6,266.4c0,6.8-5.5,12.3-12.3,12.3s-12.3-5.5-12.3-12.3v-22.1h24.6L318.6,266.4
				L318.6,266.4z M338.3,229.6c0,2.7-2.2,4.9-4.9,4.9h-4.9h-44.2H117.1H72.8h-4.9c-2.7,0-4.9-2.2-4.9-4.9v-19.7
				c0-2.7,2.2-4.9,4.9-4.9h265.4c2.7,0,4.9,2.2,4.9,4.9V229.6z"/>
			<rect x="141.6" y="67.3" transform="matrix(0.6 -0.8 0.8 0.6 13.5945 171.703)" class="st3" width="73.7" height="9.8"/>
			
				<rect x="181" y="67.3" transform="matrix(0.6002 -0.7999 0.7999 0.6002 29.2986 203.1295)" class="st3" width="73.7" height="9.8"/>
		</g>
	</g>
</g>
<g id="assle_free_entry_or_access" class="st0">
	<g class="st1">
		<g>
			<rect x="69.1" y="44.5" class="st2" width="262.5" height="29.6"/>
		</g>
		<g>
			<path class="st3" d="M318.9,19.1H81.8c-7,0-12.7,5.7-12.7,12.7v144c0,7,5.7,12.7,12.7,12.7v93.1h118.5v-93.1h118.5
				c7,0,12.7-5.7,12.7-12.7v-144C331.6,24.8,325.9,19.1,318.9,19.1z M191.8,196.9h-8.5v8.5h8.5v50.8h-8.5v8.5h8.5v8.5H90.2v-8.5h8.5
				v-8.5h-8.5v-50.8h8.5v-8.5h-8.5v-8.5h4.2h21.2h50.8h21.2h4.2L191.8,196.9L191.8,196.9z M179.1,179.9h-12.7V163
				c0-14-11.4-25.4-25.4-25.4c-14,0-25.4,11.4-25.4,25.4v16.9h-12.7V163c0-21,17.1-38.1,38.1-38.1s38.1,17.1,38.1,38.1L179.1,179.9
				L179.1,179.9z M158,179.9h-33.9V163c0-9.3,7.6-16.9,16.9-16.9c9.3,0,16.9,7.6,16.9,16.9V179.9z M323.1,175.7
				c0,2.3-1.9,4.2-4.2,4.2H200.3h-12.7V163c0-25.7-20.9-46.6-46.6-46.6S94.5,137.3,94.5,163V180H81.8c-2.3,0-4.2-1.9-4.2-4.2v-144
				c0-2.3,1.9-4.2,4.2-4.2h237.1c2.3,0,4.2,1.9,4.2,4.2V175.7z"/>
			<path class="st3" d="M141,201.1c-9.3,0-16.9,7.6-16.9,16.9c0,4.1,1.5,8,4.2,11.1v31.2h25.4v-31.2c2.7-3.1,4.2-7,4.2-11.1
				C158,208.7,150.4,201.1,141,201.1z M146.7,224.3l-1.4,1.3v26.3h-8.5v-26.3l-1.4-1.3c-1.8-1.6-2.8-3.9-2.8-6.3
				c0-4.7,3.8-8.5,8.5-8.5s8.5,3.8,8.5,8.5C149.5,220.4,148.5,222.7,146.7,224.3z"/>
		</g>
	</g>
</g>
<g id="Real-time_Booking_x3B_" class="st0">
	<g class="st1">
		<circle class="st2" cx="189.7" cy="88.9" r="40.2"/>
		<path class="st3" d="M318.9,19.1H81.8c-7,0-12.7,5.7-12.7,12.7v122.8c0,7,5.7,12.7,12.7,12.7h45.3c-0.6,0.4-1.1,0.8-1.6,1.3
			c-3.6,3.6-5.6,8.4-5.6,13.5c0,5.1,2,9.9,5.6,13.5l45.2,45.2v40.8h8.5v-44.3l-47.7-47.7c-2-2-3.1-4.7-3.1-7.5
			c0-2.8,1.1-5.5,3.1-7.5c4-4,11-4,15,0l32.7,32.7V93.2c0-5.8,4.7-10.6,10.6-10.6c5.8,0,10.6,4.7,10.6,10.6V144v10.6h8.5V144
			c0-5.8,4.7-10.6,10.6-10.6c5.8,0,10.6,4.7,10.6,10.6v4.2v6.4h8.5v-6.4c0-5.8,4.7-10.6,10.6-10.6c5.8,0,10.6,4.7,10.6,10.6v8.5v2.1
			h8.5v-2.1c0-5.8,4.7-10.6,10.6-10.6c5.8,0,10.6,4.7,10.6,10.6v6.4v84.7c0,7-5.7,12.7-12.7,12.7h-4.2v21.2h8.5v-13.1
			c9.6-2,16.9-10.5,16.9-20.7v-80.4h21.2c7,0,12.7-5.7,12.7-12.7V31.8C331.6,24.8,325.9,19.1,318.9,19.1z M77.5,154.5V93.2V31.8
			c0-2.3,1.9-4.2,4.2-4.2h25.4v65.6v65.6H81.8C79.4,158.8,77.5,156.9,77.5,154.5z M152.4,168.6c-0.5-0.5-1.1-0.9-1.6-1.3h19.9v19.6
			L152.4,168.6z M278.6,137.6c-4.5,0-8.5,1.6-11.8,4.2c-2.6-7.4-9.6-12.7-17.9-12.7c-5.1,0-9.8,2.1-13.2,5.4
			c-3.3-5.7-9.4-9.6-16.4-9.6c-3.9,0-7.6,1.2-10.6,3.2v-35c0-10.5-8.5-19.1-19.1-19.1s-19.1,8.5-19.1,19.1v65.6h-55V27.5h173.6
			v113.3C286.2,138.8,282.6,137.6,278.6,137.6z M323.1,154.5c0,2.3-1.9,4.2-4.2,4.2h-21.2v-2.1V27.5h21.2c2.3,0,4.2,1.9,4.2,4.2
			V154.5z"/>
		<rect x="306.2" y="103.7" class="st3" width="8.5" height="8.5"/>
		<rect x="306.2" y="74.1" class="st3" width="8.5" height="25.4"/>
		<path class="st3" d="M92.3,108c8.2,0,14.8-6.6,14.8-14.8s-6.6-14.8-14.8-14.8S77.5,85,77.5,93.2S84.2,108,92.3,108z M92.3,86.8
			c3.5,0,6.4,2.8,6.4,6.4c0,3.5-2.8,6.4-6.4,6.4c-3.5,0-6.4-2.8-6.4-6.4C86,89.7,88.8,86.8,92.3,86.8z"/>
	</g>
</g>
<g id="Connected_cafeteria" class="st0">
	<g class="st1">
		<path class="st3" d="M326.9,122.2h18.8V94.1h-15.1l-4.7-18.8H74.8l-4.7,18.8H55v28.1h18.8v51.6v23.4v65.6H55v28.1h290.6v-28.1
			h-18.8v-62.2l5,1.7l13.7-6.9v-18.5l-19-26.6h0.3V122.2z M82.1,84.7h236.4l2.3,9.4H79.8L82.1,84.7z M64.4,112.8v-9.4h3.4h265.1h3.4
			v9.4h-9.4h-9.4H83.1h-9.4H64.4z M317.5,122.2v18.8H181.6h-7.3H83.1v-18.8H317.5z M312.8,189.1l-9.4,3.1l-9.4-3.1v-6.8l-12-32h13.8
			l17,33.9V189.1z M158.1,262.8v-62.7l4.3,2.2l9.7-3.2v63.8L158.1,262.8L158.1,262.8z M158.1,184.5l21.3-34.2h2.1h6.5L172.2,182v7.1
			l-9,3l-5-2.5v-1.8L158.1,184.5L158.1,184.5z M148.8,187.8H97.2H83.1v-4.7h65.6V187.8z M106.6,197.2h42.2v65.6h-42.2V197.2z
			 M181.6,184.2l17-33.9h13.8l-12,32v6.8l-9.4,3.1l-9.4-3.1L181.6,184.2L181.6,184.2z M272.1,150.3l12.6,33.7v5.1l-9.4,3.1l-9.4-3.1
			v-6l-4.1-32.8H272.1z M252.4,150.3l4.1,33.1v5.7l-9.4,3.1l-9.4-3.1v-5.7l4.1-33.1H252.4z M228.5,182.5l0,6.6l-9.4,3.1l-9.4-3.1
			V184l12.6-33.7h10.2L228.5,182.5z M205,197.4l14.1,4.7l14.1-4.7l14.1,4.7l14.1-4.7l14.1,4.7l14.1-4.7l4.7,1.6v40.4H205V197.4z
			 M83.1,150.3h85.3l-14.6,23.4H83.1V150.3z M83.1,197.2h14.1v65.6H83.1V197.2z M336.2,281.6H64.4v-9.4h9.4h9.4h14.1h60.9h178.1
			V281.6z M317.5,262.8H181.6V199l9.4,3.1l4.7-1.6v48.2h107.8v-46.6l14.1-4.7L317.5,262.8L317.5,262.8L317.5,262.8z M336.2,189.6
			l-5,2.5l-9-3V182l-15.9-31.7h8.8l21.2,29.6L336.2,189.6L336.2,189.6z"/>
		<path class="st2" d="M303.4,84.7H97.2V23.8c0-7.8,6.3-14.1,14.1-14.1h178.1c7.8,0,14.1,6.3,14.1,14.1L303.4,84.7L303.4,84.7z"/>
		<path class="st3" d="M134.7,61.2H130c-2.6,0-4.7-2.1-4.7-4.7h-9.4c0,7.8,6.3,14.1,14.1,14.1h4.7c7.8,0,14.1-6.3,14.1-14.1
			s-6.3-14.1-14.1-14.1H130c-2.6,0-4.7-2.1-4.7-4.7s2.1-4.7,4.7-4.7h4.7c2.6,0,4.7,2.1,4.7,4.7h9.4c0-7.8-6.3-14.1-14.1-14.1H130
			c-7.8,0-14.1,6.3-14.1,14.1s6.3,14.1,14.1,14.1h4.7c2.6,0,4.7,2.1,4.7,4.7C139.4,59.1,137.3,61.2,134.7,61.2z"/>
		<polygon class="st3" points="167.5,51.9 186.2,51.9 186.2,70.6 195.6,70.6 195.6,23.8 186.2,23.8 186.2,42.5 167.5,42.5 
			167.5,23.8 158.1,23.8 158.1,70.6 167.5,70.6 		"/>
		<path class="st3" d="M223.8,70.6c10.3,0,18.8-8.4,18.8-18.8v-9.4c0-10.3-8.4-18.8-18.8-18.8S205,32.2,205,42.5v9.4
			C205,62.2,213.4,70.6,223.8,70.6z M214.4,42.5c0-5.2,4.2-9.4,9.4-9.4s9.4,4.2,9.4,9.4v9.4c0,5.2-4.2,9.4-9.4,9.4s-9.4-4.2-9.4-9.4
			V42.5z"/>
		<path class="st3" d="M261.2,51.9h9.4c7.8,0,14.1-6.3,14.1-14.1s-6.3-14.1-14.1-14.1h-18.8v46.9h9.4V51.9z M261.2,33.1h9.4
			c2.6,0,4.7,2.1,4.7,4.7s-2.1,4.7-4.7,4.7h-9.4V33.1z"/>
	</g>
</g>
<g id="Constant_Updates" class="st0">
	<g class="st1">
		<polygon class="st4" points="285.1,256 321.6,271.6 285.1,186.5 285.1,255.4 		"/>
		<polygon class="st4" points="171.6,178.4 171.6,206.7 200,218.9 200,150 		"/>
		<polygon class="st4" points="102.7,36.5 107.7,47.2 118.9,48.9 110.8,57.2 112.7,68.9 102.7,63.4 92.7,68.9 94.6,57.2 86.5,48.9 
			97.7,47.2 		"/>
	</g>
	<path class="st5" d="M253.4,102.3l10.2-10.2l-5.7-5.7L136.3,207.9l5.7,5.7l10.2-10.2L320,275.3c0.5,0.2,1.1,0.3,1.6,0.3
		c1.1,0,2.1-0.4,2.9-1.2c1.2-1.2,1.5-2.9,0.9-4.5L253.4,102.3z M252.7,218.9h-20.3v-8.1h20.3V218.9z M252.7,202.7h-20.3v-8.1h20.3
		V202.7z M252.7,186.5h-20.3v-8.1h20.3V186.5z M252.7,170.3h-20.3v-8.1h20.3V170.3z M252.7,154.1h-20.3v-8.1h20.3V154.1z
		 M232.4,137.8v-8.1h20.3v8.1H232.4z M232.4,227h20.3v10.6l-20.3-8.7V227z M252.9,121.6h-0.2h-18.6l13.2-13.2L252.9,121.6z
		 M224.3,131.4v94.1l-65.9-28.2L224.3,131.4z M260.8,241.1V140l53.1,123.9L260.8,241.1z"/>
	<path class="st5" d="M139.9,184.7l6.7-4.5l-2.6-4c-9.3-13.9-23.3-24.1-39.4-28.7c-3.6-1-7.3-1.5-11-1.5c-10.6,0-19.3,8.6-19.3,19.3
		c0,4.3,1.7,8.4,4.8,11.5c6.3,6.3,16.6,6.3,22.9,0l3.6-3.6l-5.7-5.7l-3.6,3.6c-3.2,3.2-8.3,3.2-11.5,0c-1.5-1.5-2.4-3.6-2.4-5.7
		c0-6.2,5-11.2,11.2-11.2c3,0,5.9,0.4,8.8,1.2c14.3,4.1,26.6,13.1,34.8,25.4L139.9,184.7z"/>
	<path class="st5" d="M226.2,94l4,2.6l4.5-6.7l-4-2.6c-12.3-8.2-21.4-20.6-25.4-34.8c-0.8-2.8-1.2-5.8-1.2-8.8
		c0-6.2,5-11.2,11.2-11.2c2.2,0,4.2,0.8,5.7,2.4c3.2,3.2,3.2,8.3,0,11.5l-3.6,3.6l5.7,5.7l3.6-3.6c6.3-6.3,6.3-16.6,0-22.9
		c-3.1-3.1-7.1-4.8-11.5-4.8c-10.6,0-19.3,8.6-19.3,19.3c0,3.7,0.5,7.4,1.5,11C202.1,70.7,212.3,84.7,226.2,94z"/>
	<path class="st5" d="M169.2,102c0.6,0.4,5.6,4.2,9,5.9l3.6-7.3c-2.3-1.1-6.4-4.1-7.8-5.2c-8.8-6.5-16.4-14.3-22.5-23.4
		c-5.4-8.2-8.3-17.7-8.3-27.5c0-6.7,5.5-12.2,12.2-12.2c4.5,0,8.1,3.6,8.1,8.1s-3.6,8.1-8.1,8.1v8.1c8.9,0,16.2-7.3,16.2-16.2
		s-7.3-16.2-16.2-16.2c-11.2,0-20.3,9.1-20.3,20.3c0,11.4,3.3,22.5,9.7,32C151.4,86.4,159.6,95,169.2,102z"/>
	<polygon class="st5" points="209.8,113.9 190.1,104.9 189.6,104.7 186.4,112.1 206.4,121.3 	"/>
	<path class="st5" d="M155.1,136.3l8.8,19.4l7.4-3.4l-8.8-19.4c-5.8-12.8-14.1-24-24.6-33.4l-5.4,6
		C142.1,114.2,149.7,124.5,155.1,136.3z"/>
	<path class="st5" d="M90.6,117.6c8.9,0,16.2-7.3,16.2-16.2h-8.1c0,4.5-3.6,8.1-8.1,8.1s-8.1-3.6-8.1-8.1c0-6.7,5.5-12.2,12.2-12.2
		c7.7,0,15.5,1.9,22.3,5.4c0.1,0,5.1,2.9,9.7,6.2l4.7-6.6c-5-3.5-10.2-6.5-10.6-6.7c-8.1-4.1-17.2-6.3-26.2-6.3
		c-11.2,0-20.3,9.1-20.3,20.3C74.3,110.3,81.6,117.6,90.6,117.6z"/>
	<rect x="94.6" y="227" class="st5" width="8.1" height="12.2"/>
	
		<rect x="81.7" y="232.4" transform="matrix(0.7071 -0.7071 0.7071 0.7071 -143.4841 130.4884)" class="st5" width="8.1" height="12.2"/>
	<rect x="74.3" y="247.3" class="st5" width="12.2" height="8.1"/>
	
		<rect x="79.7" y="260.2" transform="matrix(0.7071 -0.7071 0.7071 0.7071 -161.7232 138.0237)" class="st5" width="12.2" height="8.1"/>
	<rect x="94.6" y="263.5" class="st5" width="8.1" height="12.2"/>
	
		<rect x="107.5" y="258.2" transform="matrix(0.7071 -0.7071 0.7071 0.7071 -154.1636 156.2776)" class="st5" width="8.1" height="12.2"/>
	<rect x="110.8" y="247.3" class="st5" width="12.2" height="8.1"/>
	
		<rect x="105.5" y="234.4" transform="matrix(0.7071 -0.7071 0.7071 0.7071 -135.9224 148.7318)" class="st5" width="12.2" height="8.1"/>
	<rect x="297.3" y="24.3" class="st5" width="8.1" height="12.2"/>
	
		<rect x="284.4" y="29.7" transform="matrix(0.7071 -0.7071 0.7071 0.7071 59.1965 214.4188)" class="st5" width="8.1" height="12.2"/>
	<rect x="277" y="44.6" class="st5" width="12.2" height="8.1"/>
	
		<rect x="282.4" y="57.5" transform="matrix(0.7071 -0.7071 0.7071 0.7071 40.9478 221.9922)" class="st5" width="12.2" height="8.1"/>
	<rect x="297.3" y="60.8" class="st5" width="8.1" height="12.2"/>
	
		<rect x="310.2" y="55.5" transform="matrix(0.7071 -0.7071 0.7071 0.7071 48.5005 240.2247)" class="st5" width="8.1" height="12.2"/>
	<rect x="313.5" y="44.6" class="st5" width="12.2" height="8.1"/>
	
		<rect x="308.2" y="31.7" transform="matrix(0.7071 -0.7071 0.7071 0.7071 66.747 232.6715)" class="st5" width="12.2" height="8.1"/>
</g>
<g id="Intelligent_Recommendations" class="st0">
	<polygon class="st6" points="236.1,144.4 191,144.4 181.9,135.3 181.9,90.2 191,81.2 236.1,81.2 245.1,90.2 245.1,135.3 	"/>
	<g class="st1">
		<path class="st3" d="M317.3,112.8c0-56.5-45.9-103-102.4-103.7c-0.4,0-0.9,0-1.3,0c-48.7,0-91.3,34.7-101.6,83
			c-2.5,11.9-2.8,24.2-0.9,36.6l-30.5,54.6l33.7,9.7l0.1,55.3h45.1v40.6h9v-49.6h-45.1l-0.1-53L94,177.7l26.5-47.4l-0.3-1.6
			c-2-11.7-1.8-23.4,0.6-34.8c9.4-44.1,48.3-75.9,92.8-75.9c0.4,0,0.8,0,1.2,0c51.5,0.7,93.5,43.1,93.5,94.7l0,16.5
			c0,36.1-17.8,70-47.6,90.5l-2,1.3v67.6h9v-62.9c31.1-22.3,49.6-58.3,49.6-96.6L317.3,112.8z"/>
		<path class="st3" d="M231.6,31.6c-7.5,0-13.5,6.1-13.5,13.5c0,5.9,3.8,10.8,9,12.7v23.4h9V57.8c5.2-1.9,9-6.8,9-12.7
			C245.1,37.6,239,31.6,231.6,31.6z M231.6,49.6c-2.5,0-4.5-2-4.5-4.5s2-4.5,4.5-4.5c2.5,0,4.5,2,4.5,4.5S234.1,49.6,231.6,49.6z"/>
		<path class="st3" d="M195.5,31.6c-7.5,0-13.5,6.1-13.5,13.5c0,5.9,3.8,10.8,9,12.7v23.4h9V57.8c5.2-1.9,9-6.8,9-12.7
			C209,37.6,202.9,31.6,195.5,31.6z M195.5,49.6c-2.5,0-4.5-2-4.5-4.5s2-4.5,4.5-4.5s4.5,2,4.5,4.5S198,49.6,195.5,49.6z"/>
		<path class="st3" d="M257.3,90.2h-12.2v9H260l16.7-11.1v-7.8c5.2-1.9,9-6.8,9-12.7c0-7.5-6.1-13.5-13.5-13.5
			c-7.5,0-13.5,6.1-13.5,13.5c0,5.9,3.8,10.8,9,12.7v2.9L257.3,90.2z M272.2,63.1c2.5,0,4.5,2,4.5,4.5s-2,4.5-4.5,4.5
			c-2.5,0-4.5-2-4.5-4.5S269.7,63.1,272.2,63.1z"/>
		<path class="st3" d="M276.7,171.4c0-5.9-3.8-10.8-9-12.7v-23.4h5.3c1.9,5.2,6.8,9,12.7,9c7.5,0,13.5-6.1,13.5-13.5
			c0-7.5-6.1-13.5-13.5-13.5c-5.9,0-10.8,3.8-12.7,9h-27.9v9h13.5v23.4c-5.2,1.9-9,6.8-9,12.7c0,7.5,6.1,13.5,13.5,13.5
			C270.6,185,276.7,178.9,276.7,171.4z M285.7,126.3c2.5,0,4.5,2,4.5,4.5s-2,4.5-4.5,4.5c-2.5,0-4.5-2-4.5-4.5
			S283.2,126.3,285.7,126.3z M258.7,171.4c0-2.5,2-4.5,4.5-4.5c2.5,0,4.5,2,4.5,4.5c0,2.5-2,4.5-4.5,4.5
			C260.7,176,258.7,173.9,258.7,171.4z"/>
		<path class="st3" d="M169.8,135.3h12.2v-9H167l-16.7,11.1v12.3c-5.2,1.9-9,6.8-9,12.7c0,7.5,6.1,13.5,13.5,13.5
			s13.5-6.1,13.5-13.5c0-5.9-3.8-10.8-9-12.7v-7.4L169.8,135.3z M154.9,166.9c-2.5,0-4.5-2-4.5-4.5c0-2.5,2-4.5,4.5-4.5
			s4.5,2,4.5,4.5C159.4,164.9,157.4,166.9,154.9,166.9z"/>
		<path class="st3" d="M154,90.2c-1.9-5.2-6.8-9-12.7-9c-7.5,0-13.5,6.1-13.5,13.5c0,7.5,6.1,13.5,13.5,13.5c5.9,0,10.8-3.8,12.7-9
			h27.9v-9h-13.5v-9.9c5.2-1.9,9-6.8,9-12.7c0-7.5-6.1-13.5-13.5-13.5s-13.5,6.1-13.5,13.5c0,5.9,3.8,10.8,9,12.7v9.9H154z
			 M163.9,63.1c2.5,0,4.5,2,4.5,4.5s-2,4.5-4.5,4.5s-4.5-2-4.5-4.5S161.4,63.1,163.9,63.1z M141.3,99.2c-2.5,0-4.5-2-4.5-4.5
			s2-4.5,4.5-4.5s4.5,2,4.5,4.5S143.8,99.2,141.3,99.2z"/>
		<path class="st3" d="M236.1,163.2v-18.9h-9v18.9c-5.2,1.9-9,6.8-9,12.7c0,7.5,6.1,13.5,13.5,13.5s13.5-6.1,13.5-13.5
			C245.1,170.1,241.3,165.1,236.1,163.2z M231.6,180.5c-2.5,0-4.5-2-4.5-4.5c0-2.5,2-4.5,4.5-4.5c2.5,0,4.5,2,4.5,4.5
			C236.1,178.4,234.1,180.5,231.6,180.5z"/>
		<path class="st3" d="M200,163.2v-18.9h-9v18.9c-5.2,1.9-9,6.8-9,12.7c0,7.5,6.1,13.5,13.5,13.5c7.5,0,13.5-6.1,13.5-13.5
			C209,170.1,205.2,165.1,200,163.2z M195.5,180.5c-2.5,0-4.5-2-4.5-4.5c0-2.5,2-4.5,4.5-4.5s4.5,2,4.5,4.5
			C200,178.4,198,180.5,195.5,180.5z"/>
		<rect x="195.5" y="99.2" class="st3" width="36.1" height="9"/>
		<rect x="195.5" y="117.3" class="st3" width="22.6" height="9"/>
	</g>
</g>
<g id="Accurate_Utilization" class="st0">
	<path class="st6" d="M339.4,157.2V13.3H200v134.9h4.5v9h42c0.3,0.9,0.3,1.9,0.1,2.9c-0.8,3.4-0.9,7-0.3,10.7
		c2,11.7,11.8,20.9,23.5,22.2c16.3,1.8,30-10.9,30-26.8c0-2-0.2-3.9-0.6-5.8c-0.2-1.1-0.2-2.2,0.1-3.2L339.4,157.2L339.4,157.2z"/>
	<g class="st1">
		<path class="st3" d="M305.1,157.2h34.3v-4.5c0-72.6-53.9-132.5-125.5-139.4l-0.9,8.9c65.4,6.3,115.1,60,117.3,125.9h-25.2
			c-3.2,0-6.2,1.4-8.1,3.9c-2.1,2.6-2.9,6-2.1,9.3c0.3,1.6,0.5,3.2,0.5,4.8c0,6.4-2.7,12.5-7.5,16.7c-4.8,4.3-11.1,6.3-17.6,5.6
			c-9.7-1.1-18-8.8-19.6-18.5c-0.5-3-0.4-6,0.3-8.9c0.7-3.1,0-6.3-2-8.8c-2.1-2.6-5.2-4.1-8.5-4.1h-36v9h36c0.6,0,1.1,0.3,1.5,0.7
			c0.3,0.4,0.4,0.7,0.3,1.1c-1,4.1-1.1,8.3-0.4,12.5c2.3,13.7,13.6,24.4,27.5,25.9c1.2,0.1,2.3,0.2,3.5,0.2c7.8,0,15.3-2.8,21.1-8
			c6.7-6,10.5-14.5,10.5-23.4c0-2.3-0.2-4.6-0.7-6.7c-0.1-0.6,0-1.3,0.4-1.7C304.3,157.3,304.6,157.2,305.1,157.2z"/>
		<path class="st3" d="M195.5,193.1c0,0.6-0.3,1.1-0.7,1.5c-0.4,0.3-0.7,0.4-1.1,0.3c-4.1-1-8.3-1.1-12.5-0.4
			c-13.7,2.3-24.4,13.6-25.9,27.5c-1,8.9,1.9,17.9,7.8,24.5c6,6.7,14.5,10.5,23.4,10.5c2.3,0,4.6-0.2,6.7-0.7c0.7-0.1,1.3,0,1.7,0.4
			c0.4,0.3,0.5,0.7,0.5,1.1v34.3h4.5c72.6,0,132.5-53.9,139.4-125.5l-8.9-0.9c-6.3,65.4-60,115.1-125.9,117.3v-25.2
			c0-3.2-1.4-6.2-3.9-8.1c-2.6-2.1-6-2.9-9.3-2.1c-7.7,1.7-16.2-1-21.5-7c-4.3-4.8-6.3-11.1-5.6-17.6c1.1-9.7,8.8-18,18.5-19.6
			c3-0.5,6-0.4,8.9,0.3c3.1,0.7,6.3,0,8.8-2c2.6-2.1,4.1-5.2,4.1-8.5v-36h-9V193.1L195.5,193.1z"/>
		<path class="st3" d="M159.5,148.2c-0.6,0-1.1-0.3-1.5-0.7c-0.3-0.4-0.4-0.7-0.3-1.1c1-4.1,1.1-8.3,0.4-12.5
			c-2.3-13.7-13.6-24.4-27.5-25.9c-8.9-1-17.9,1.9-24.5,7.8c-6.7,6-10.5,14.5-10.5,23.4c0,2.3,0.2,4.6,0.7,6.7
			c0.1,0.6,0,1.3-0.4,1.7c-0.3,0.4-0.7,0.5-1.1,0.5H60.6v4.5c0,72.6,53.9,132.5,125.5,139.4l0.9-8.9c-65.4-6.3-115.1-60-117.3-125.9
			h25.2c3.2,0,6.2-1.4,8.1-3.9c2.1-2.6,2.9-6,2.1-9.3c-0.3-1.6-0.5-3.2-0.5-4.8c0-6.4,2.7-12.5,7.5-16.7c4.8-4.3,11.1-6.3,17.6-5.6
			c9.7,1.1,18,8.8,19.6,18.5c0.5,3,0.4,6-0.3,8.9c-0.7,3.1,0,6.3,2,8.8c2.1,2.6,5.2,4.1,8.5,4.1h36v-9H159.5z"/>
		<path class="st3" d="M204.5,112.2c0-0.6,0.3-1.1,0.7-1.5c0.4-0.3,0.7-0.4,1.1-0.3c4.1,1,8.3,1.1,12.5,0.4
			c13.7-2.3,24.4-13.6,25.9-27.5c1-8.9-1.9-17.9-7.8-24.5c-6-6.7-14.5-10.5-23.4-10.5c-2.3,0-4.6,0.2-6.7,0.7
			c-0.6,0.1-1.3,0-1.7-0.4c-0.4-0.3-0.5-0.7-0.5-1.1V13.3H200c-72.6,0-132.5,53.9-139.4,125.5l8.9,0.9
			c6.3-65.4,60-115.1,125.9-117.3v25.2c0,3.2,1.4,6.2,3.9,8.1c2.6,2.1,6,2.9,9.3,2.1c7.7-1.7,16.2,1,21.5,7
			c4.3,4.8,6.3,11.1,5.6,17.6c-1.1,9.7-8.8,18-18.5,19.6c-3,0.5-6,0.4-8.9-0.3c-3.1-0.7-6.3,0-8.8,2c-2.6,2.1-4.1,5.2-4.1,8.5v36h9
			L204.5,112.2L204.5,112.2z"/>
	</g>
</g>
<g id="Energy_Management" class="st0">
	<path class="st6" d="M337.6,108.2V72.7H317c-0.9-2.9-2.1-5.8-3.5-8.5L328,49.7l-25.1-25.1l-14.6,14.6c-2.7-1.4-5.6-2.6-8.5-3.5V15
		h-35.5v20.6c-2.9,0.9-5.8,2.1-8.5,3.5l-14.6-14.6l-25.1,25.1l14.6,14.6c-1.4,2.7-2.6,5.6-3.5,8.5h-20.6v35.5h20.6
		c0.9,2.9,2.1,5.8,3.5,8.5l-14.6,14.6l25.1,25.1l14.6-14.6c2.7,1.4,5.6,2.6,8.5,3.5v20.6h35.5v-20.6c2.9-0.9,5.8-2.1,8.5-3.5
		l14.6,14.6l25.1-25.1l-14.6-14.6c1.4-2.7,2.6-5.6,3.5-8.5H337.6z M262.1,121.5c-3.2,0-6.3-0.5-9.2-1.4
		c-5.1-8.3-12.1-15.3-20.4-20.4c-0.9-2.9-1.4-6-1.4-9.2c0-17.2,13.9-31.1,31.1-31.1c17.2,0,31.1,13.9,31.1,31.1
		S279.3,121.5,262.1,121.5z"/>
	<path class="st7" d="M297.6,90.4c0-19.6-15.9-35.5-35.5-35.5s-35.5,15.9-35.5,35.5c0,0.4,0.1,0.8,0.1,1.2C218.5,88,209.5,86,200,86
		c-26.3,0-50.4,15.9-60.9,39.9h-19H89.1h-4.4c-12.2,0-22.2,10-22.2,22.2c0,12.2,10,22.2,22.2,22.2h4.4h31.1H136
		c3.9,14.2,12.3,26.6,24.1,35.5v9.1c-7.5,1.1-13.3,7.5-13.3,15.3c0,5.6,3,10.4,7.4,13.2c-1.8,2.6-2.9,5.7-2.9,9
		c0,5.6,3,10.4,7.4,13.2c-1.8,2.6-2.9,5.7-2.9,9c0,8.6,7,15.5,15.5,15.5h57.7c8.6,0,15.5-7,15.5-15.5c0-3.4-1.1-6.5-2.9-9
		c4.4-2.7,7.4-7.6,7.4-13.2c0-3.4-1.1-6.5-2.9-9c4.4-2.7,7.4-7.6,7.4-13.2c0-7.8-5.8-14.2-13.3-15.3v-9.1
		c16.7-12.6,26.6-32.3,26.6-53.2c0-9.5-2-18.5-5.6-26.7c0.4,0,0.8,0.1,1.2,0.1C281.7,125.9,297.6,110,297.6,90.4z M135.6,134.8h42.2
		v8.9h-57.7v-8.9H135.6z M84.6,161.5c-7.3,0-13.3-6-13.3-13.3c0-7.3,6-13.3,13.3-13.3h4.4v26.6H84.6z M97.9,161.5v-26.6h13.3v26.6
		H97.9z M120.1,161.5v-8.9h57.7v8.9h-43.9H120.1z M233.3,259.1h-4.4h-57.7h-4.4c-3.7,0-6.7-3-6.7-6.7s3-6.7,6.7-6.7h66.6
		c3.7,0,6.7,3,6.7,6.7S237,259.1,233.3,259.1z M228.8,281.3h-57.7c-3.7,0-6.7-3-6.7-6.7s3-6.7,6.7-6.7h57.7c3.7,0,6.7,3,6.7,6.7
		S232.5,281.3,228.8,281.3z M244.4,230.2c0,3.7-3,6.7-6.7,6.7h-4.4h-66.6h-4.4c-3.7,0-6.7-3-6.7-6.7s3-6.7,6.7-6.7h75.4
		C241.4,223.6,244.4,226.6,244.4,230.2z M233,199.9l-1.9,1.3v13.5h-62.1v-13.5l-1.9-1.3c-10.4-7.2-18-17.6-21.9-29.6h41.5v-44.4
		h-37.8c9.8-18.8,29.6-31.1,51.1-31.1c11.2,0,21.6,3.2,30.4,8.8c7.5,4.7,13.9,11.1,18.5,18.5c5.5,8.8,8.8,19.2,8.8,30.4
		C257.7,171.4,248.4,189.1,233,199.9z M236.3,96.8c-0.5-2.1-0.8-4.2-0.8-6.4c0-14.7,11.9-26.6,26.6-26.6c14.7,0,26.6,11.9,26.6,26.6
		s-11.9,26.6-26.6,26.6c-2.2,0-4.3-0.3-6.4-0.8C250.7,108.5,244,101.9,236.3,96.8z"/>
</g>
<g id="Analytics_Dashboard" class="st0">
	<g class="st1">
		<path class="st2" d="M154.5,144.9h-76V79.8h76V144.9z"/>
		<path class="st2" d="M241.3,144.9h-76V79.8h76V144.9z"/>
		<path class="st2" d="M328.1,144.9h-76V79.8h76V144.9z"/>
	</g>
	<g class="st1">
		<path class="st3" d="M349.8,14.7h-293c-12,0-21.7,9.7-21.7,21.7v195.3c0,12,9.7,21.7,21.7,21.7h97.7v27.1h-38v10.9h38h97.7h38
			v-10.9h-38v-27.1h97.7c12,0,21.7-9.7,21.7-21.7V36.4C371.5,24.4,361.8,14.7,349.8,14.7z M241.3,280.5h-76v-27.1h76V280.5z
			 M360.7,231.7c0,6-4.9,10.9-10.9,10.9h-97.7h-97.7H56.8c-6,0-10.9-4.9-10.9-10.9V36.4c0-6,4.9-10.9,10.9-10.9h293
			c6,0,10.9,4.9,10.9,10.9V231.7z"/>
		<path class="st3" d="M56.8,231.7h293V36.4h-293V231.7z M67.7,47.2H339v173.6H67.7V47.2z"/>
		<circle class="st3" cx="84" cy="63.5" r="5.4"/>
		<circle class="st3" cx="100.2" cy="63.5" r="5.4"/>
		<circle class="st3" cx="116.5" cy="63.5" r="5.4"/>
		<rect x="78.5" y="155.7" class="st3" width="162.8" height="10.9"/>
		<rect x="78.5" y="177.4" class="st3" width="162.8" height="10.9"/>
		<rect x="78.5" y="199.1" class="st3" width="162.8" height="10.9"/>
		<rect x="257.6" y="155.7" class="st3" width="70.5" height="10.9"/>
		<rect x="257.6" y="177.4" class="st3" width="70.5" height="10.9"/>
		<rect x="257.6" y="199.1" class="st3" width="70.5" height="10.9"/>
	</g>
</g>
<g id="Cost_Saving" class="st0">
	<g class="st1">
		<path class="st2" d="M185.7,56.6l-48.9-13.3l-12,10C121,47.6,119,41,119,34.2v-11c0-6.1,5-11.1,11.1-11.1s11.1,5,11.1,11.1v4.4
			c0,1.2,1,2.2,2.2,2.2s2.2-1,2.2-2.2v-4.4c0-6.1,5-11.1,11.1-11.1s11.1,5,11.1,11.1v4.4c0,1.2,1,2.2,2.2,2.2s2.2-1,2.2-2.2v-4.4
			c0-6.1,5-11.1,11.1-11.1s11.1,5,11.1,11.1v11c0,6.8-2,13.4-5.8,19.1L185.7,56.6z"/>
		<path class="st3" d="M115.6,123.3l-8.9-4.4H92.3V52.1H61.2v84.5h31.1v-8.9h12.3l8.9,4.4h5.5v-8.9L115.6,123.3L115.6,123.3z
			 M83.4,127.7H70.1V61h13.3L83.4,127.7L83.4,127.7z"/>
		<path class="st2" d="M159.1,221.2c-0.8,0-1.6,0-2.4,0c-30-1.2-54.9-26.7-55.4-56.7c-0.3-15.5,5.5-30.2,16.3-41.3
			c9.5-9.8,14.8-22,14.8-34.5l22.2-14.3l8.9,8.9v44.5h31.1l5.2-5.4c11,10.9,17,25.5,17,41c0,15.9-6.3,30.7-17.8,41.7
			C188.2,215.5,174.1,221.2,159.1,221.2z"/>
		<path class="st3" d="M181.3,154.4v-2.2c0-8.6-7-15.6-15.6-15.6h-2.2v-8.9h-8.9v8.9h-2.2c-8.6,0-15.6,7-15.6,15.6
			c0,8.6,7,15.6,15.6,15.6h13.3c3.7,0,6.7,3,6.7,6.7s-3,6.7-6.7,6.7h-13.3c-3.7,0-6.7-3-6.7-6.7v-2.2h-8.9v2.2
			c0,8.6,7,15.6,15.6,15.6h2.2v8.9h8.9V190h2.2c8.6,0,15.6-7,15.6-15.6c0-8.6-7-15.6-15.6-15.6h-13.3c-3.7,0-6.7-3-6.7-6.7
			c0-3.7,3-6.7,6.7-6.7h13.3c3.7,0,6.7,3,6.7,6.7v2.2L181.3,154.4L181.3,154.4z"/>
		<path class="st3" d="M200.1,74.4c2.1-2.4,3.5-5.5,3.5-8.9c0-7.4-6-13.4-13.3-13.4h-16.6l-3.1-3.9l-34.8-9.9L108.5,61H87.9v8.9
			h23.9l26.1-21.8l27.5,7.9l9.4,11.7c1.2,1.5,1.8,3.5,1.5,5.5c-0.2,2-1.3,3.7-2.9,4.9c-2.9,2.2-6.9,1.9-9.5-0.7l-9-9l-25.4,20.3
			l5.6,6.9l19.1-15.3l3.3,3.3c0.5,0.5,1,0.9,1.6,1.3c0.3,3.2,1.5,5.2,3.3,7.2c-2.1,2.4-3.5,5.5-3.5,8.9s1.3,6.5,3.5,8.9
			c-2.1,2.4-3.5,5.5-3.5,8.9c0,7.4,6,13.3,13.3,13.3h17.8c7.4,0,13.3-6,13.3-13.3c0-3.4-1.3-6.5-3.5-8.9c2.1-2.4,3.5-5.5,3.5-8.9
			c0-3.4-1.3-6.5-3.5-8.9c2.1-2.4,3.5-5.5,3.5-8.9C203.5,79.8,202.2,76.7,200.1,74.4z M190.2,123.3h-17.8c-2.5,0-4.4-2-4.4-4.4
			c0-2.5,2-4.4,4.4-4.4h17.8c2.5,0,4.4,2,4.4,4.4C194.6,121.3,192.6,123.3,190.2,123.3z M190.2,105.5h-17.8c-2.5,0-4.4-2-4.4-4.4
			c0-2.5,2-4.4,4.4-4.4h17.8c2.5,0,4.4,2,4.4,4.4C194.6,103.5,192.6,105.5,190.2,105.5z M190.2,87.7h-16.5c1.8-0.5,3.5-1.4,5-2.5
			c2.2-1.7,3.9-3.9,5-6.4h6.4c2.5,0,4.4,2,4.4,4.4S192.6,87.7,190.2,87.7z M190.2,69.9H185c-0.4-2.8-1.5-5.5-3.3-7.8l-0.9-1.1h9.4
			c2.5,0,4.4,2,4.4,4.4C194.6,67.9,192.6,69.9,190.2,69.9z"/>
		<path class="st3" d="M305.8,221.2v13.3h-29.8l-12.2-8.1l-37.5-13.3c-3.6-1.3-7.4-1-10.8,0.7c-3.4,1.7-5.8,4.6-6.9,8.3
			c-1.9,6.3,0.9,13.1,6.7,16.1l9.6,5.1l-14,0l-5.8-14.4c-1.9-4.7-6.4-7.8-11.5-7.8c-4,0-7.7,1.9-10,5.2c-2.3,3.2-2.9,7.4-1.7,11.2
			l1.3,4l-9.8-5.3c-3.1-1.7-6.8-2-10.2-0.9c-3.4,1.1-6.1,3.6-7.6,6.8c-2.9,6.3-0.2,13.7,6,16.7l22,10.8l45.6,9.3l59.1,0.1l17.4-3.5
			v12.4H337v-66.7H305.8L305.8,221.2z M190.9,231.5c1.5-2.1,5.1-1.6,6,0.7l4.4,11.1l-8,0l-2.9-8.7
			C190.1,233.6,190.2,232.4,190.9,231.5z M287.6,270.1h-57l-43.5-8.7l-21.4-10.6c-1.9-0.9-2.7-3.2-1.8-5.1c0.4-1,1.3-1.7,2.3-2.1
			c1-0.4,2.1-0.3,3.1,0.3l15.3,8.3h42.2l17.6-8.8l-24.9-13.2c-2-1.1-3-3.5-2.4-5.7c0.4-1.3,1.3-2.3,2.4-2.9c1.2-0.6,2.5-0.7,3.8-0.3
			l36,12.6l14,9.3h32.5v23L287.6,270.1z M328.1,279h-13.3v-48.9h13.3V279z"/>
	</g>
</g>
<g id="Predictive_Analytics" class="st0">
	<g class="st1">
		<rect x="92.2" y="103.7" class="st2" width="215.6" height="123.9"/>
		<path class="st3" d="M329.3,98.3c0-5.3-2.6-9.9-6.5-12.9l21.8-26.1c1.9,0.8,4.1,1.3,6.3,1.3c8.9,0,16.2-7.3,16.2-16.2
			s-7.3-16.2-16.2-16.2c-8.9,0-16.2,7.3-16.2,16.2c0,2.7,0.7,5.3,2,7.6l-25.1,30.2H86.8c-8.9,0-16.2,7.3-16.2,16.2v140.1H32.9V260
			c0,8.9,7.3,16.2,16.2,16.2h301.8c8.9,0,16.2-7.3,16.2-16.2v-21.6h-37.7L329.3,98.3L329.3,98.3z M350.9,39c3,0,5.4,2.4,5.4,5.4
			s-2.4,5.4-5.4,5.4c-3,0-5.4-2.4-5.4-5.4S347.9,39,350.9,39z M81.4,98.3c0-3,2.4-5.4,5.4-5.4h215.7l-63.9,76.7
			c-1.9-0.8-4.1-1.3-6.3-1.3c-4.3,0-8.3,1.7-11.2,4.5l-37.5-18.8c0.1-0.7,0.2-1.3,0.2-2c0-8.9-7.3-16.2-16.2-16.2
			c-8.9,0-16.2,7.3-16.2,16.2c0,2.5,0.6,4.8,1.6,6.9l-27,27c-2.1-1-4.4-1.6-6.9-1.6c-8.9,0-16.2,7.3-16.2,16.2
			c0,8.9,7.3,16.2,16.2,16.2s16.2-7.3,16.2-16.2c0-2.5-0.6-4.8-1.6-6.9l27-27c2.1,1,4.4,1.6,6.9,1.6c4.3,0,8.3-1.7,11.2-4.5
			l37.5,18.8c-0.1,0.7-0.2,1.3-0.2,2c0,8.9,7.3,16.2,16.2,16.2s16.2-7.3,16.2-16.2c0-2.7-0.7-5.3-2-7.6l69.3-83.2
			c1.6,0.9,2.7,2.6,2.7,4.5v140.1H81.4V98.3z M237.7,184.5c0,3-2.4,5.4-5.4,5.4c-3,0-5.4-2.4-5.4-5.4c0-3,2.4-5.4,5.4-5.4
			C235.3,179.1,237.7,181.6,237.7,184.5z M162.3,152.2c0-3,2.4-5.4,5.4-5.4s5.4,2.4,5.4,5.4s-2.4,5.4-5.4,5.4
			S162.3,155.2,162.3,152.2z M124.6,200.7c0,3-2.4,5.4-5.4,5.4s-5.4-2.4-5.4-5.4c0-3,2.4-5.4,5.4-5.4S124.6,197.7,124.6,200.7z
			 M356.3,249.2V260c0,3-2.4,5.4-5.4,5.4H49.1c-3,0-5.4-2.4-5.4-5.4v-10.8h26.9h258.7H356.3z"/>
	</g>
</g>
<g id="Easy_Deploy" class="st0">
	<path class="st8" d="M98.2,190.1c0,14.8,6.7,28.2,18.9,37.9c3.9-1.1,7.9-1.7,12.1-1.7h31.5c9.6,0,17.4-7.8,17.4-17.4l2,0.5
		c-25.7-9.5-44.1-34.1-44.1-63.1v-21c0,0,18-3.6,33.7-12.6S203.4,79,203.4,79s15.4,23.7,29.4,33.7c14,9.9,37.9,12.6,37.9,12.6v21
		c0,29-18.4,53.6-44.1,63.1l2-0.5c0,9.6,7.8,17.4,17.4,17.4h31.5c4.2,0,8.3,0.6,12.1,1.7c12.2-9.7,18.9-23,18.9-37.9
		c0-4.2-0.5-8.3-1.7-12.4c6.6-8.5,10.1-18.6,10.1-29.4c0-19.5-11.8-37-29.6-44.5c-2.4-44.1-39.5-79.5-83.9-79.5
		s-81.5,35.4-83.9,79.6c-17.8,7.5-29.6,25.1-29.6,44.6c0,10.7,3.6,21.1,10.1,29.5C98.8,182,98.2,185.9,98.2,190.1z"/>
	<path class="st7" d="M145.2,187.6c7.2,10.2,17.1,18.4,28.5,23.6c-1.1,6.1-6.5,10.7-12.9,10.7h-31.5c-26.4,0-47.9,21.5-47.9,47.9
		v15.2h80.8h82.4h80.8v-15.2c0-26.4-21.5-47.9-47.9-47.9H246c-6.4,0-11.8-4.6-12.9-10.7c24.6-11.3,41.8-36.1,41.8-65v-24.8l-3.7-0.4
		c-0.2,0-22.9-2.7-35.9-11.9c-13.2-9.3-28.2-32.3-28.3-32.5l-3.3-5.1l-3.6,4.9c-0.2,0.2-17.7,24.1-32.4,32.5
		c-14.8,8.5-32.2,12.1-32.4,12.1l-3.4,0.7v24.5c0,10.5,2.3,20.5,6.4,29.5 M151.5,181.9c-0.8-1.1-0.9-1.3-1.4-2
		c-6.1-9.7-9.8-21.2-9.8-33.6v-17.7c6.1-1.5,19.4-5.3,31.5-12.3c12.1-7,25.2-22.3,31.4-30.1c5.4,7.7,16.5,22.4,27.2,29.9
		c11.5,8.1,28.6,11.6,36.1,12.8v17.4c0,34.8-28.3,63.1-63.1,63.1c-18.6,0-35.3-8.2-46.9-21 M89.8,276.7v-6.8
		c0-21.8,17.7-39.5,39.5-39.5h2.6v24.4c0,8.6,3.6,16.4,9.4,21.9L89.8,276.7L89.8,276.7z M162.2,276.7c-12.1,0-21.9-9.8-21.9-21.9
		v-24.4h20.5c10,0,18.3-6.8,20.8-16c6.9,2.2,14.2,3.4,21.8,3.4c7.6,0,14.9-1.2,21.8-3.4c2.5,9.2,10.8,16.1,20.8,16.1h20.5v24.4
		c0,12.1-9.8,21.9-21.9,21.9L162.2,276.7L162.2,276.7z M317,276.7h-51.5c5.8-5.5,9.4-13.3,9.4-21.9v-24.4h2.6
		c21.8,0,39.5,17.7,39.5,39.5V276.7z"/>
</g>
<g class="st0">
	<g id="Predictive_Analytics_1_" class="st1">
		<g>
			<rect x="92.2" y="101.7" class="st9" width="215.6" height="123.9"/>
			<path class="st3" d="M329.3,96.3c0-5.3-2.6-9.9-6.5-12.9l21.8-26.1c1.9,0.8,4.1,1.3,6.3,1.3c8.9,0,16.2-7.3,16.2-16.2
				s-7.3-16.2-16.2-16.2c-8.9,0-16.2,7.3-16.2,16.2c0,2.7,0.7,5.3,2,7.6l-25.1,30.2H86.8c-8.9,0-16.2,7.3-16.2,16.2v140.1H32.9V258
				c0,8.9,7.3,16.2,16.2,16.2h301.8c8.9,0,16.2-7.3,16.2-16.2v-21.6h-37.7L329.3,96.3L329.3,96.3z M350.9,37c3,0,5.4,2.4,5.4,5.4
				s-2.4,5.4-5.4,5.4s-5.4-2.4-5.4-5.4S347.9,37,350.9,37z M81.4,96.3c0-3,2.4-5.4,5.4-5.4h215.7l-63.9,76.7
				c-1.9-0.8-4.1-1.3-6.3-1.3c-4.3,0-8.3,1.7-11.2,4.5L183.6,152c0.1-0.7,0.2-1.3,0.2-2c0-8.9-7.3-16.2-16.2-16.2
				s-16.2,7.3-16.2,16.2c0,2.5,0.6,4.8,1.6,6.9l-27,27c-2.1-1-4.4-1.6-6.9-1.6c-8.9,0-16.2,7.3-16.2,16.2s7.3,16.2,16.2,16.2
				s16.2-7.3,16.2-16.2c0-2.5-0.6-4.8-1.6-6.9l27-27c2.1,1,4.4,1.6,6.9,1.6c4.3,0,8.3-1.7,11.2-4.5l37.5,18.8
				c-0.1,0.7-0.2,1.3-0.2,2c0,8.9,7.3,16.2,16.2,16.2s16.2-7.3,16.2-16.2c0-2.7-0.7-5.3-2-7.6l69.3-83.2c1.6,0.9,2.7,2.6,2.7,4.5
				v140.1H81.4V96.3z M237.7,182.5c0,3-2.4,5.4-5.4,5.4s-5.4-2.4-5.4-5.4s2.4-5.4,5.4-5.4S237.7,179.6,237.7,182.5z M162.3,150.2
				c0-3,2.4-5.4,5.4-5.4s5.4,2.4,5.4,5.4s-2.4,5.4-5.4,5.4S162.3,153.2,162.3,150.2z M124.6,198.7c0,3-2.4,5.4-5.4,5.4
				s-5.4-2.4-5.4-5.4s2.4-5.4,5.4-5.4S124.6,195.7,124.6,198.7z M356.3,247.2V258c0,3-2.4,5.4-5.4,5.4H49.1c-3,0-5.4-2.4-5.4-5.4
				v-10.8h26.9h258.7H356.3z M237.9,182.5c0,3-2.4,5.4-5.4,5.4s-5.4-2.4-5.4-5.4s2.4-5.4,5.4-5.4S237.9,179.6,237.9,182.5z
				 M162.5,150.2c0-3,2.4-5.4,5.4-5.4s5.4,2.4,5.4,5.4s-2.4,5.4-5.4,5.4S162.5,153.2,162.5,150.2z M124.8,198.7c0,3-2.4,5.4-5.4,5.4
				s-5.4-2.4-5.4-5.4s2.4-5.4,5.4-5.4S124.8,195.7,124.8,198.7z M302.7,90.9l-63.9,76.7c-1.9-0.8-4.1-1.3-6.3-1.3
				c-4.3,0-8.3,1.7-11.2,4.5L183.8,152c0.1-0.7,0.2-1.3,0.2-2c0-8.9-7.3-16.2-16.2-16.2s-16.2,7.3-16.2,16.2c0,2.5,0.6,4.8,1.6,6.9
				l-27,27c-2.1-1-4.4-1.6-6.9-1.6c-8.9,0-16.2,7.3-16.2,16.2s7.3,16.2,16.2,16.2s16.2-7.3,16.2-16.2c0-2.5-0.6-4.8-1.6-6.9l27-27
				c2.1,1,4.4,1.6,6.9,1.6c4.3,0,8.3-1.7,11.2-4.5l37.5,18.8c-0.1,0.7-0.2,1.3-0.2,2c0,8.9,7.3,16.2,16.2,16.2s16.2-7.3,16.2-16.2
				c0-2.7-0.7-5.3-2-7.6L316,91.7"/>
		</g>
	</g>
	<path class="st10" d="M302.6,90.9l-63.9,76.7c-1.9-0.8-4.1-1.3-6.3-1.3c-4.3,0-8.3,1.7-11.2,4.5L183.7,152c0.1-0.7,0.2-1.3,0.2-2
		c0-8.9-7.3-16.2-16.2-16.2s-16.2,7.3-16.2,16.2c0,2.5,0.6,4.8,1.6,6.9l-27,27c-2.1-1-4.4-1.6-6.9-1.6c-8.9,0-16.2,7.3-16.2,16.2
		s7.3,16.2,16.2,16.2s16.2-7.3,16.2-16.2c0-2.5-0.6-4.8-1.6-6.9l27-27c2.1,1,4.4,1.6,6.9,1.6c4.3,0,8.3-1.7,11.2-4.5l37.5,18.8
		c-0.1,0.7-0.2,1.3-0.2,2c0,8.9,7.3,16.2,16.2,16.2s16.2-7.3,16.2-16.2c0-2.7-0.7-5.3-2-7.6l69.3-83.2"/>
	<circle class="st11" cx="232.3" cy="182.5" r="5.3"/>
	<circle class="st11" cx="167.9" cy="150.2" r="5.3"/>
	<circle class="st11" cx="119.2" cy="198.7" r="5.3"/>
</g>
<g class="st0">
	<g class="st1">
		<path class="st12" d="M112.9,186c4.5,1.8,9.3,2.7,14.1,2.7h11.7c5.3,0,9.5,4.3,9.5,9.5c0,10.5,8.5,19,19,19s19-8.5,19-19v-13.3
			c0-9.6-4.4-18.7-11.9-24.8c-7.5-6-11.9-15.1-11.9-24.8V98.3c0-6.3-1.9-12.4-5.3-17.6l-13.7-20.6l-1-2.3
			c-30.9,19.4-51.4,53.7-51.4,92.8c0,9.8,1.3,19.2,3.7,28.2l1.1,0.4L112.9,186z"/>
		<path class="st12" d="M310.1,150.6c0-49-32.1-90.4-76.4-104.4l-24.5,32.7c-2.5,3.3-3.8,7.3-3.8,11.4v41.3c0,10.5,8.5,19,19,19
			h38.1c5.3,0,9.5-4.3,9.5-9.5c0-5.3,4.3-9.5,9.5-9.5c5.3,0,9.5,4.3,9.5,9.5v24.2c0,2.8-1.2,5.4-3.3,7.2l-26.7,22.9
			c-2.1,1.8-3.3,4.5-3.3,7.2v41.4C289.2,224.8,310.1,190.2,310.1,150.6z"/>
		<path class="st3" d="M200.6,36.3c-63,0-114.3,51.3-114.3,114.3s51.3,114.3,114.3,114.3s114.3-51.3,114.3-114.3
			S263.6,36.3,200.6,36.3z M200.6,255.4c-57.8,0-104.8-47-104.8-104.8s47-104.8,104.8-104.8s104.8,47,104.8,104.8
			S258.4,255.4,200.6,255.4z"/>
		<path class="st3" d="M328.4,76.8l-8.2,4.8c12.1,20.9,18.5,44.8,18.5,69c0,76.1-62,138.1-138.1,138.1s-138.1-62-138.1-138.1
			s62-138.1,138.1-138.1c21.7,0,43.2,5.2,62.4,14.9c-0.3,1.3-0.5,2.7-0.5,4.1c0,10.5,8.5,19,19,19s19-8.5,19-19s-8.5-19-19-19
			c-5.7,0-10.7,2.5-14.2,6.5C246.8,8.6,223.8,3,200.6,3C119.2,3,53,69.2,53,150.6s66.2,147.6,147.6,147.6S348.2,232,348.2,150.6
			C348.2,124.7,341.4,99.2,328.4,76.8z M281.6,22c5.3,0,9.5,4.3,9.5,9.5s-4.3,9.5-9.5,9.5c-5.3,0-9.5-4.3-9.5-9.5S276.3,22,281.6,22
			z"/>
	</g>
</g>
<g class="st0">
	<g class="st1">
		<polygon class="st12" points="186.5,83.7 195.9,224.3 167.8,224.3 224,289.9 280.3,224.3 252.1,224.3 261.5,83.7 		"/>
		<path class="st3" d="M299,46.2V4H55.3v215.6c0,15.5,12.6,28.1,28.1,28.1h98.3l42.3,49.4l42.3-49.4h51.4
			c15.5,0,28.1-12.6,28.1-28.1V46.2H299z M64.6,219.6V13.4h225v32.8H184.7l-9.4-18.8h-73.2v192.2c0,10.3-8.4,18.8-18.8,18.8
			S64.6,230,64.6,219.6z M336.5,219.6c0,10.3-8.4,18.8-18.8,18.8h-43.4l16.1-18.8h-33.3l9-135.6l-9.4-0.6L247.1,229h22.9L224,282.7
			L177.9,229h22.9l-9.7-145.6l-9.4,0.6l9,135.6h-33.3l16.1,18.8h-69.3c4.5-5,7.2-11.5,7.2-18.8V36.8h58l9.4,18.8h157.6L336.5,219.6
			L336.5,219.6z"/>
	</g>
</g>
<g class="st0">
	<g class="st1">
		<path class="st3" d="M307.8,212.9c0-0.5-0.1-1-0.2-1.5c-0.1-0.7-0.2-1.4-0.3-2.2c-0.1-0.7-0.3-1.3-0.4-2c-0.1-0.5-0.2-1-0.4-1.5
			c-0.2-0.8-0.5-1.5-0.7-2.3c-0.1-0.2-0.1-0.4-0.2-0.6c7.5-7.4,11.8-17.5,11.8-28.2c0-17.7-11.8-33.2-28.6-38.1
			C284.9,111.9,263.3,93,238,93c-1.7,0-3.4,0.1-5.1,0.3l0.9,9.3c1.4-0.1,2.7-0.2,4.1-0.2c21.6,0,40,16.9,41.8,38.4l0.3,3.5l3.4,0.7
			c14.2,2.8,24.4,15.3,24.4,29.7c0,7.2-2.6,14-7.1,19.4c-7.2-10.3-19.1-17.1-32.6-17.1v9.3c12.1,0,22.5,7.1,27.4,17.4
			c0.5,1,0.9,2,1.2,2.9c0,0.1,0.1,0.2,0.1,0.2c0.3,0.9,0.6,1.8,0.8,2.8c0,0.2,0.1,0.3,0.1,0.5c0.2,0.9,0.3,1.7,0.4,2.6
			c0,0.2,0.1,0.4,0.1,0.6c0.1,1.1,0.2,2.2,0.2,3.3c0,16.7-13.6,30.3-30.3,30.3c-6.8,0-13.2-2.2-18.6-6.4l-1.9-1.5
			c-6.2-5.7-9.9-13.9-9.9-22.4h-9.3c0,10.7,4.4,20.9,12,28.4c-5.7,7.1-14.3,11.3-23.6,11.3c-11.6,0-22-6.5-27.2-16.9l-2.9-5.8
			l-4.6,4.6c-5.7,5.7-13.3,8.8-21.4,8.8c-3.7,0-7.3-0.7-10.7-2c10.6-7.1,17.7-19.2,17.7-33c0-1-0.1-2-0.2-2.9
			c7.4-1.3,14.4-4.6,20-9.8l-6.3-6.9c-4.3,4-9.7,6.6-15.4,7.5c-3.1-9.7-9.9-18.1-19.3-23l-4.3,8.3c10,5.3,16.2,15.6,16.2,26.9
			c0,13.1-8.4,24.2-20,28.5c-1.6,0.6-3.3,1-5,1.3c-0.1,0-0.2,0-0.3,0.1c-1.7,0.3-3.3,0.4-5,0.4c-16.7,0-30.3-13.6-30.3-30.3
			c0-4.5,1-8.9,3-13l1.3-2.7l-1.9-2.3c-4.5-5.4-7-12.3-7-19.4c0-14.4,10.2-26.9,24.3-29.7l3.6-0.7l0.2-3.6
			c0.8-16.2,14-28.9,30.3-28.9c3.6,0,7.3,0.7,10.8,2l3.6,1.4l2-3.2c1.6-2.5,3.4-4.7,5.6-6.6l-6.2-7c-1.9,1.7-3.7,3.6-5.2,5.6
			c-3.5-1-7-1.5-10.6-1.5c-20,0-36.6,14.8-39.3,34.3C95.7,141.6,84,157,84,174.7c0,8.3,2.6,16.3,7.4,23c-1.8,4.6-2.7,9.4-2.7,14.3
			c0,21.9,17.8,39.7,39.7,39.7c1.8,0,3.5-0.2,5.2-0.4c0.3,0,0.6-0.1,1-0.1c1.7-0.3,3.4-0.6,5.1-1.1c6.4,4.1,13.8,6.3,21.4,6.3
			c8.6,0,16.7-2.7,23.5-7.7c7.4,10.6,19.4,17,32.5,17c12.2,0,23.5-5.5,31-15c6.1,3.7,13.1,5.6,20.3,5.6c21.9,0,39.7-17.8,39.7-39.7
			C308,215.4,307.9,214.1,307.8,212.9z"/>
		<rect x="196" y="9" class="st3" width="9.3" height="18.7"/>
	</g>
	<path class="st13" d="M224,130.3h-46.7v-16.5c-11.6-7.8-18.7-20.9-18.7-34.9c0-23.2,18.8-42,42-42s42,18.8,42,42
		c0,14-7.1,27.1-18.7,34.9V130.3z"/>
	<g class="st1">
		<rect x="165.7" y="17.1" transform="matrix(0.866 -0.5 0.5 0.866 9.5872 88.7096)" class="st3" width="9.3" height="18.7"/>
		<rect x="143.4" y="39.3" transform="matrix(0.5 -0.866 0.866 0.5 31.9188 152.5961)" class="st3" width="9.3" height="18.7"/>
		<path class="st3" d="M179.7,121c-6.4,0-11.7,5.2-11.7,11.7c0,4.2,2.2,7.8,5.5,9.8c-0.5,1.3-0.8,2.7-0.8,4.2
			c0,6.4,5.2,11.7,11.7,11.7H217c6.4,0,11.7-5.2,11.7-11.7c0-1.5-0.3-2.9-0.8-4.2c3.3-2.1,5.5-5.7,5.5-9.8c0-6.4-5.2-11.7-11.7-11.7
			h-16.3V92.1c5.4-1.9,9.3-7.1,9.3-13.1c0-7.7-6.3-14-14-14s-14,6.3-14,14c0,6.1,3.9,11.2,9.3,13.1V121H179.7z M200.7,74.3
			c2.6,0,4.7,2.1,4.7,4.7c0,2.6-2.1,4.7-4.7,4.7S196,81.6,196,79C196,76.4,198.1,74.3,200.7,74.3z M217,149h-32.7
			c-1.3,0-2.3-1.1-2.3-2.3s1.1-2.3,2.3-2.3H217c1.3,0,2.3,1.1,2.3,2.3S218.3,149,217,149z M224,132.7c0,1.3-1.1,2.3-2.3,2.3H217
			h-32.7h-4.7c-1.3,0-2.3-1.1-2.3-2.3s1.1-2.3,2.3-2.3h42C222.9,130.3,224,131.4,224,132.7z M205.3,121V92.1
			c5.4-1.9,9.3-7.1,9.3-13.1c0-7.7-6.3-14-14-14s-14,6.3-14,14c0,6.1,3.9,11.2,9.3,13.1V121 M200.7,74.3c2.6,0,4.7,2.1,4.7,4.7
			c0,2.6-2.1,4.7-4.7,4.7S196,81.6,196,79C196,76.4,198.1,74.3,200.7,74.3z"/>
		<rect x="130.7" y="74.3" class="st3" width="18.7" height="9.3"/>
		<rect x="252" y="74.3" class="st3" width="18.7" height="9.3"/>
		
			<rect x="243.9" y="44" transform="matrix(0.8661 -0.4999 0.4999 0.8661 9.5817 133.0915)" class="st3" width="18.7" height="9.3"/>
		
			<rect x="221.7" y="21.8" transform="matrix(0.4999 -0.8661 0.8661 0.4999 92.5821 213.2983)" class="st3" width="18.7" height="9.3"/>
		<polygon class="st3" points="70,261 82.1,261 57.4,285.7 63.9,292.3 88.7,267.6 88.7,279.7 98,279.7 98,251.7 70,251.7 		"/>
		<polygon class="st3" points="331.3,261 331.3,251.7 303.3,251.7 303.3,279.7 312.7,279.7 312.7,267.6 337.4,292.3 344,285.7 
			319.3,261 		"/>
		<polygon class="st3" points="70,121 70,130.3 98,130.3 98,102.3 88.7,102.3 88.7,114.4 63.9,89.7 57.4,96.3 82.1,121 		"/>
		<polygon class="st3" points="331.3,121 319.3,121 344,96.3 337.4,89.7 312.7,114.4 312.7,102.3 303.3,102.3 303.3,130.3 
			331.3,130.3 		"/>
	</g>
	<path class="st10" d="M205.3,121V92.1c5.4-1.9,9.3-7.1,9.3-13.1c0-7.7-6.3-14-14-14s-14,6.3-14,14c0,6.1,3.9,11.2,9.3,13.1V121"/>
	<circle class="st13" cx="200.7" cy="79" r="4.7"/>
</g>
<g>
	<g>
		<path class="st3" d="M153.1,164.1v14.1h-4.7c-12.9,0-23.4,10.5-23.4,23.4c0,12.9,10.5,23.4,23.4,23.4h18.8
			c7.8,0,14.1,6.3,14.1,14.1s-6.3,14.1-14.1,14.1h-18.8c-7.8,0-14.1-6.3-14.1-14.1v-4.7H125v4.7c0,12.9,10.5,23.4,23.4,23.4h4.7
			v14.1h9.4v-14.1h4.7c12.9,0,23.4-10.5,23.4-23.4c0-12.9-10.5-23.4-23.4-23.4h-18.8c-7.8,0-14.1-6.3-14.1-14.1
			c0-7.8,6.3-14.1,14.1-14.1h18.8c7.8,0,14.1,6.3,14.1,14.1v4.7h9.4v-4.7c0-12.9-10.5-23.4-23.4-23.4h-4.7v-14.1H153.1z"/>
		<path class="st3" d="M312.5,192.2h-78.7c-6-19.6-19.5-36.3-37.4-46.3l-8.2-4.7l-4.7,8.1l8.2,4.7c15,8.3,26.5,22,32.2,38.1h-14.7
			V225h9.4v14.1H200v32.7c-12.1,9.2-26.7,14.2-42.2,14.2c-38.8,0-70.3-31.5-70.3-70.3c0-25.5,13.9-49.1,36.4-61.6l8.2-4.7l-4.7-8.1
			l-8.1,4.7c-25.4,14.1-41.1,40.8-41.1,69.7c0,43.9,35.8,79.7,79.7,79.7c19.2,0,37.2-6.7,51.6-19v19h103.1v-32.8h-9.4v-14.1h18.8
			v-32.8h-9.4V192.2z M303.1,215.6h-14.1v-14.1h14.1V215.6z M275,239.1V225h14.1v14.1H275z M246.9,248.4v14.1h-14.1v-14.1H246.9z
			 M265.6,215.6v-14.1h14.1v14.1H265.6z M256.3,215.6h-14.1v-14.1h14.1V215.6z M265.6,225v14.1h-14.1V225H265.6z M256.3,271.9V286
			h-14.1v-14.1H256.3z M265.6,271.9h14.1V286h-14.1V271.9z M256.3,262.5v-14.1h14.1v14.1H256.3z M218.8,201.6h14.1v14.1h-14.1V201.6
			z M228.1,225h14.1v14.1h-14.1V225z M209.4,248.4h9.4h4.7v14.1h-14.1V248.4z M218.8,271.9h14.1V286h-14.1V271.9z M303.1,286h-14.1
			v-14.1h14.1V286z M293.8,262.5h-14.1v-14.1h14.1V262.5z M312.5,239.1h-9.4h-4.7V225h14.1V239.1z"/>
		<path class="st3" d="M331.3,4.7c-7.8,0-14.1,6.3-14.1,14.1c0,1.6,0.3,3,0.8,4.4l-73,44.6c-2.2-1.4-4.7-2.2-7.5-2.2
			c-2.9,0-5.6,0.9-7.8,2.4l-53.5-28.8c-1.4-6.3-7-11.1-13.7-11.1c-7.8,0-14.1,6.3-14.1,14.1c0,1.7,0.3,3.2,0.9,4.7L76,95.8
			c-2.1-1.3-4.6-2.1-7.2-2.1c-7.8,0-14.1,6.3-14.1,14.1s6.3,14.1,14.1,14.1s14.1-6.3,14.1-14.1c0-1.7-0.3-3.2-0.9-4.7l24.3-16.2v6.9
			c0,15.6,6.8,29.9,18.8,39.8l-0.1,7.1l9.4,0.1l0.1-11.8l-1.9-1.4c-10.8-8.1-17-20.4-17-33.7v-9.4c0-2.6,2.1-4.7,4.7-4.7
			s4.7,2.1,4.7,4.7c0,7.8,6.3,14.1,14.1,14.1s14.1-6.3,14.1-14.1c0-2.6,2.1-4.7,4.7-4.7c2.6,0,4.7,2.1,4.7,4.7
			c0,7.8,6.3,14.1,14.1,14.1s14.1-6.3,14.1-14.1c0-2.6,2.1-4.7,4.7-4.7c2.6,0,4.7,2.1,4.7,4.7v9.4c0,13.4-6.2,25.7-17,33.7l-1.9,1.4
			l0.1,11.8l9.4-0.1l-0.1-7.1c12-9.8,18.8-24.2,18.8-39.8v-9.4c0-7.8-6.3-14.1-14.1-14.1s-14.1,6.3-14.1,14.1c0,2.6-2.1,4.7-4.7,4.7
			c-2.6,0-4.7-2.1-4.7-4.7c0-7.8-6.3-14.1-14.1-14.1s-14.1,6.3-14.1,14.1c0,2.6-2.1,4.7-4.7,4.7c-2.6,0-4.7-2.1-4.7-4.7
			c0-5-2.6-9.4-6.6-11.9l27.5-18.3c2.1,1.3,4.6,2.1,7.2,2.1c5.3,0,9.8-2.9,12.2-7.2l49.4,26.6c-0.4,1.3-0.7,2.6-0.7,4.1
			c0,7.8,6.3,14.1,14.1,14.1s14.1-6.3,14.1-14.1c0-1.6-0.3-3-0.8-4.4l73-44.6c2.2,1.4,4.7,2.2,7.5,2.2c7.8,0,14.1-6.3,14.1-14.1
			S339,4.7,331.3,4.7z M68.7,112.5c-2.6,0-4.7-2.1-4.7-4.7s2.1-4.7,4.7-4.7s4.7,2.1,4.7,4.7S71.3,112.5,68.7,112.5z M162.5,46.9
			c-2.6,0-4.7-2.1-4.7-4.7s2.1-4.7,4.7-4.7c2.6,0,4.7,2.1,4.7,4.7S165.1,46.9,162.5,46.9z M237.5,84.4c-2.6,0-4.7-2.1-4.7-4.7
			s2.1-4.7,4.7-4.7s4.7,2.1,4.7,4.7S240.1,84.4,237.5,84.4z M331.3,23.4c-2.6,0-4.7-2.1-4.7-4.7s2.1-4.7,4.7-4.7s4.7,2.1,4.7,4.7
			S333.9,23.4,331.3,23.4z"/>
		<rect x="298.4" y="121.1" class="st3" width="9.4" height="14.1"/>
		<rect x="298.4" y="64.8" class="st3" width="9.4" height="14.1"/>
		<rect x="298.4" y="149.2" class="st3" width="9.4" height="14.1"/>
		<rect x="298.4" y="93" class="st3" width="9.4" height="14.1"/>
		<polygon class="st3" points="329,167.3 324.2,159.3 303.1,171.9 282.1,159.3 277.3,167.3 303.1,182.8 		"/>
	</g>
	<path class="st12" d="M195.3,150h-75c-5.2,0-9.4-4.2-9.4-9.4l0,0c0-5.2,4.2-9.4,9.4-9.4h75c5.2,0,9.4,4.2,9.4,9.4l0,0
		C204.7,145.8,200.5,150,195.3,150z"/>
</g>
<g class="st0">
	<g class="st1">
		<path class="st12" d="M134.7,164.4h131.2c2.9,0,5.5,1.4,7.2,3.5c1.4-5.6,2.1-11.5,2.1-17.5c0-41.4-33.6-75-75-75s-75,33.6-75,75
			c0,6.1,0.8,11.9,2.1,17.5C129.2,165.7,131.8,164.4,134.7,164.4z"/>
		<path class="st3" d="M265.9,159.7H134.7c-7.8,0-14.1,6.3-14.1,14.1v84.4c0,7.8,6.3,14.1,14.1,14.1h32.8v14.1h-9.4v9.4h9.4h65.6
			h9.4v-9.4h-9.4v-14.1h32.8c7.8,0,14.1-6.3,14.1-14.1v-84.4C280,166,273.7,159.7,265.9,159.7z M223.8,286.2h-46.9v-14.1h46.9V286.2
			z M270.6,258.1c0,2.6-2.1,4.7-4.7,4.7h-32.8h-65.6h-32.8c-2.6,0-4.7-2.1-4.7-4.7v-84.4c0-2.6,2.1-4.7,4.7-4.7h131.2
			c2.6,0,4.7,2.1,4.7,4.7L270.6,258.1L270.6,258.1z"/>
		<path class="st3" d="M130,94.1v-75c0-7.8-6.3-14.1-14.1-14.1H69.1C61.3,5,55,11.3,55,19.1v75c0,7.8,6.3,14.1,14.1,14.1h46.9
			C123.7,108.1,130,101.8,130,94.1z M69.1,14.4h46.9c2.6,0,4.7,2.1,4.7,4.7V80H64.4V19.1C64.4,16.5,66.5,14.4,69.1,14.4z
			 M115.9,98.8H92.5H69.1c-2.6,0-4.7-2.1-4.7-4.7v-4.7h28.1h28.1v4.7C120.6,96.6,118.5,98.8,115.9,98.8z"/>
		<circle class="st3" cx="92.5" cy="94.1" r="4.7"/>
		<path class="st3" d="M336.3,61.2V19.1c0-7.8-6.3-14.1-14.1-14.1h-65.6c-7.8,0-14.1,6.3-14.1,14.1v42.2h-9.4V80
			c0,5.2,4.2,9.4,9.4,9.4h93.7c5.2,0,9.4-4.2,9.4-9.4V61.2H336.3z M251.9,19.1c0-2.6,2.1-4.7,4.7-4.7h65.6c2.6,0,4.7,2.1,4.7,4.7
			v42.2h-32.8v4.7h-9.4v-4.7h-32.8L251.9,19.1L251.9,19.1z M336.3,80h-93.8v-9.4h32.8v4.7h28.1v-4.7h32.8L336.3,80L336.3,80z"/>
		<path class="st3" d="M92.3,118.8l-9-2.6c-3.2,11.1-4.9,22.6-4.9,34.1c0,29,10.4,57.1,29.2,79.2l7.1-6.1
			c-17.4-20.4-27-46.3-27-73.1C87.8,139.7,89.3,129.1,92.3,118.8z"/>
		<path class="st3" d="M231.8,42.3l2.6-9c-11.1-3.2-22.6-4.9-34.1-4.9c-22.4,0-44.3,6.1-63.4,17.8l4.9,8
			C168.4,38,201.6,33.5,231.8,42.3z"/>
		<path class="st3" d="M301.4,100.8c7.6,15.5,11.5,32.1,11.5,49.5c0,26.8-9.6,52.7-27,73.1l7.1,6.1c18.9-22.1,29.2-50.2,29.2-79.2
			c0-18.8-4.2-36.8-12.4-53.6L301.4,100.8z"/>
	</g>
</g>
<g class="st0">
	<g class="st1">
		<g>
			<path class="st12" d="M136.7,104.7c-34.9,0-63.1,28.3-63.1,63.1c0,20,9.4,37.9,23.9,49.4l23.7-41.4c1.2-2.1,3.5-3.5,6-3.5
				c4.7,0,8,4.6,6.5,9l-15.6,46.8c5.9,1.8,12.1,2.8,18.6,2.8c34.9,0,63.1-28.3,63.1-63.1S171.6,104.7,136.7,104.7z"/>
			<path class="st3" d="M141.2,257.4c0-9.2-6.6-16.9-15.7-18.3c-1.9-0.3-3.9-0.7-5.9-1.3l14.4-43.2c0.9,0.1,1.8,0.2,2.7,0.2
				c14.9,0,27-12.1,27-27c0-14.9-12.1-27-27-27s-27,12.1-27,27c0,4.6,1.2,9,3.5,13l-23.6,41.3c-2.8-2.4-5.5-5-7.8-7.6l-1.3-1.6H69.1
				V276h53.5C132.9,276,141.2,267.7,141.2,257.4z M129.4,179.9l-21,63.1c-1.2,3.5-4.4,5.9-8.2,5.9c-4.7,0-8.6-3.8-8.6-8.6v-1.5
				c0-1.5,0.4-3,1.1-4.3l32.4-56.6c0.4-0.7,1.2-1.2,2-1.2c1.1,0,1.7,0.6,1.9,1C129.4,178.2,129.7,178.9,129.4,179.9z M136.7,149.8
				c9.9,0,18,8.1,18,18c0,9.9-8,17.9-17.8,18l1-3c1.2-3.5,0.6-7.3-1.6-10.3c-2.1-3-5.6-4.7-9.2-4.7c-3.1,0-6,1.3-8.1,3.4
				c-0.2-1.1-0.4-2.3-0.4-3.4C118.7,157.9,126.8,149.8,136.7,149.8z M78.1,223.8c2.1,2.2,4.4,4.3,6.9,6.3l0,0.1
				c-1.5,2.7-2.3,5.7-2.3,8.7v1.5c0,9.7,7.9,17.6,17.6,17.6c7.4,0,14-4.7,16.5-11.6c2.6,0.7,5,1.2,7.4,1.6c4.7,0.7,8,4.7,8,9.4
				c0,5.3-4.3,9.6-9.6,9.6H78.1V223.8z"/>
			<path class="st3" d="M253.9,55.1c30.1,0,81.1-4.7,81.1-22.5S284.1,10,253.9,10s-81.1,4.7-81.1,22.5S223.8,55.1,253.9,55.1z
				 M253.9,19c45,0,71.3,8.9,72.1,13.5c-0.9,4.6-27.1,13.5-72.1,13.5c-45,0-71.2-8.9-72.1-13.5C182.7,28,209,19,253.9,19z"/>
			<path class="st3" d="M326,82.1c-0.9,4.6-27.1,13.5-72.1,13.5c-12.6,0-25-0.8-36.1-2.2v-6.8h-29.3c-5.1-2.2-6.7-4.1-6.8-4.5v-27
				h-9v27c0,1.7,0.5,3.2,1.3,4.5H55.6v202.9h144.3c9.9,0,18-8.1,18-18v-69.8c11.2,1.4,23.5,2.2,36.1,2.2c30.1,0,81.1-4.7,81.1-22.5
				v-27h-9v27c-0.9,4.6-27.1,13.5-72.1,13.5c-12.7,0-25-0.8-36.1-2.2v-40.5c11.2,1.4,23.5,2.2,36.1,2.2c30.1,0,81.1-4.7,81.1-22.5
				v-27h-9v27c-0.9,4.6-27.1,13.5-72.1,13.5c-12.6,0-25-0.8-36.1-2.2v-40.5c11.2,1.4,23.5,2.2,36.1,2.2c30.1,0,81.1-4.7,81.1-22.5
				v-27h-9L326,82.1L326,82.1z M208.8,271.5c0,5-4,9-9,9H64.6V95.7h144.3V271.5z"/>
			<path class="st3" d="M272,244.4c0,7.5-6.1,13.5-13.5,13.5h-19.1l9.4-15.7l-7.7-4.6l-14.9,24.9l14.9,24.9l7.7-4.6l-9.4-15.7h19.1
				c12.4,0,22.5-10.1,22.5-22.5v-31.6h-9V244.4z"/>
			<path class="st3" d="M118.7,55.1c0-7.5,6.1-13.5,13.5-13.5h19.1l-9.4,15.7l7.7,4.6l14.9-24.9l-14.9-24.9l-7.7,4.6l9.4,15.7h-19.1
				c-12.4,0-22.5,10.1-22.5,22.5v22.5h9L118.7,55.1L118.7,55.1z"/>
		</g>
	</g>
	<g class="st1">
		<path class="st14" d="M136.7,140.8c-14.9,0-27,12.1-27,27c0,4.6,1.2,9,3.5,13l-23.6,41.3l8,4.2l27.6-48.3c0.4-0.7,1.2-1.2,2-1.2
			c1.1,0,1.7,0.6,1.9,1c0.3,0.4,0.7,1.1,0.3,2.1l-17.9,53.7l8.1,4.2l14.4-43.2c0.9,0.1,1.8,0.2,2.7,0.2c14.9,0,27-12.1,27-27
			C163.8,152.9,151.6,140.8,136.7,140.8z M137,185.8l1-3c1.2-3.5,0.6-7.3-1.6-10.3c-2.1-3-5.6-4.7-9.2-4.7c-3.1,0-6,1.3-8.1,3.4
			c-0.2-1.1-0.4-2.3-0.4-3.4c0-9.9,8.1-18,18-18s18,8.1,18,18C154.7,177.7,146.8,185.7,137,185.8z"/>
	</g>
	<path class="st13" d="M129.4,179.9l-21,63.1c-1.2,3.5-4.4,5.9-8.2,5.9c-4.7,0-8.6-3.8-8.6-8.6v-1.5c0-1.5,0.4-3,1.1-4.3l32.4-56.6
		c0.4-0.7,1.2-1.2,2-1.2c1.1,0,1.7,0.6,1.9,1S129.7,178.9,129.4,179.9z"/>
</g>
</svg>
