<?xml version="1.0" standalone="no"?><!DOCTYPE svg PUBLIC "-//W3C//DTD SVG 1.1//EN" "http://www.w3.org/Graphics/SVG/1.1/DTD/svg11.dtd"><svg class="icon" height="512" viewBox="0 0 1024 1024" version="1.1" xmlns="http://www.w3.org/2000/svg"><path d="M355.23072 613.80608c117.9136 0 213.85728-95.96416 213.85728-213.89824 0-117.95456-95.94368-213.91872-213.85216-213.91872-117.93408 0-213.888 95.96416-213.888 213.91872-0.00512 117.93408 95.95392 213.89824 213.88288 213.89824z" fill="" /><path d="M605.41952 719.41632c-37.05344-60.84608-101.56544-104.96-120.89856-117.3248-35.93216 27.36128-80.72192 43.63776-129.26464 43.63776-48.56832 0-93.37856-16.2816-129.32096-43.63776-19.33824 12.3392-83.85536 56.47872-120.91392 117.3248-42.82368 70.30784-47.92832 112.896-48.10752 114.67264a15.872 15.872 0 0 0 14.00832 17.5104 16.384 16.384 0 0 0 1.83296 0.13824c0.45056 0 0.90112-0.0256 1.35168-0.07168h561.87392c0.53248 0.07168 1.12128 0.09216 1.65888 0.09216a15.94368 15.94368 0 0 0 15.87712-17.67424c-0.18432-1.77152-5.28896-44.35968-48.09728-114.66752zM977.92 221.65504v-20.05504a15.36 15.36 0 0 0-15.36-15.36h-406.60992a15.36 15.36 0 0 0-15.36 15.36v14.93504h0.2304v1.3312s42.22976 36.7616 62.45888 96.34816H872.96v0.0256h1.60256c5.65248 0 10.24 4.54656 10.24 10.14784v32.97792a10.19392 10.19392 0 0 1-10.24 10.14784h-201.17504c-0.3584 0-0.70144-0.07168-1.0496-0.10752h-58.32704c3.44064 36.0448 0.7424 68.01408-5.1968 95.62624h265.42592c5.65248 0 10.24 4.54656 10.24 10.14784v32.97792a10.19392 10.19392 0 0 1-10.24 10.14784h-201.17504c-0.27648 0-0.53248-0.06144-0.79872-0.08192H591.9744c-19.09248 44.6976-42.83392 68.64896-42.83392 68.64896s68.84864 47.34976 108.55936 112.75776c41.856 68.91008 48.63488 121.18016 49.7152 138.05568v5.0432c0 5.65248 4.58752 10.24 10.25024 10.24h249.89696a10.25024 10.25024 0 0 0 10.25536-10.24v-25.16992c0-0.08704-0.0256-0.16384-0.0256-0.25088V221.64992l0.128 0.00512z m-93.01504 417.06496a10.24 10.24 0 0 1-10.24 10.24h-202.88a10.24 10.24 0 0 1-10.24-10.24v-32.64a10.24 10.24 0 0 1 10.24-10.24h202.88a10.24 10.24 0 0 1 10.24 10.24v32.64z" fill="" /></svg>