<?xml version="1.0" encoding="utf-8"?>
<!-- Generator: Adobe Illustrator 22.1.0, SVG Export Plug-In . SVG Version: 6.00 Build 0)  -->
<svg version="1.1" id="Layer_1" xmlns="http://www.w3.org/2000/svg" xmlns:xlink="http://www.w3.org/1999/xlink" x="0px" y="0px"
	 viewBox="0 0 400 300" style="enable-background:new 0 0 400 300;" xml:space="preserve">
<style type="text/css">
	.st0{display:none;}
	.st1{display:inline;}
	.st2{fill:#F8BA49;}
	.st3{fill:#333333;}
	.st4{fill:#F7BA48;}
	.st5{display:inline;fill:#010101;}
	.st6{display:inline;fill:#F8BA49;}
	.st7{display:inline;fill:#333333;}
	.st8{fill:#1C9DD2;}
	.st9{fill:#403B34;}
	.st10{display:inline;fill:#FFFFFF;}
	.st11{fill:#1F9DD2;}
	.st12{fill:#FFFFFF;}
	.st13{display:inline;fill:#219DD2;}
</style>
<g class="st0">
	<g class="st1">
		<path class="st2" d="M171.8,93.6c-20.7,0-37.6-16.9-37.6-37.6s16.9-37.6,37.6-37.6s37.6,16.9,37.6,37.6S192.5,93.6,171.8,93.6z"/>
		<path class="st2" d="M171.8,187.6c-20.7,0-37.6-16.9-37.6-37.6s16.9-37.6,37.6-37.6s37.6,16.9,37.6,37.6S192.5,187.6,171.8,187.6z
			"/>
		<path class="st2" d="M171.8,281.6c-20.7,0-37.6-16.9-37.6-37.6s16.9-37.6,37.6-37.6s37.6,16.9,37.6,37.6S192.5,281.6,171.8,281.6z
			"/>
	</g>
	<g class="st1">
		<path class="st3" d="M345.7,244v-37.6h-17.4c-0.7-1.9-1.4-3.7-2.3-5.5l12.3-12.3l-26.6-26.6l-12.3,12.3c-1.8-0.8-3.6-1.6-5.5-2.3
			v-17.4h-14.1l9.4-12.5v-25.1h-47V88.9h16.4l30.5-40.7V23.1h-47V4.3h-141v18.8h-47v25.1l30.5,40.7h16.4v28.2h-47v25.1l30.5,40.7
			h16.4v28.2h-47v25.1l30.5,40.7h16.4v18.8h141v-11l8.6-8.6c1.8,0.8,3.6,1.6,5.5,2.3v17.4H294v-17.4c1.9-0.7,3.7-1.4,5.5-2.3
			l12.3,12.3l26.6-26.6L326,249.5c0.8-1.8,1.6-3.6,2.3-5.5L345.7,244L345.7,244z M279.9,126.5V139l-11.7,15.7h-11.8v17.4
			c-1.9,0.7-3.7,1.4-5.5,2.3l-8.6-8.6v-39.2H279.9z M279.9,32.5v12.5L254,79.5h-11.7v-47H279.9z M89.6,79.5L63.7,45.1V32.5h37.6v47
			H89.6z M89.6,173.5L63.7,139v-12.5h37.6v47H89.6z M89.6,267.5L63.7,233v-12.5h37.6v47H89.6z M110.7,286.3V13.7h122.2v154.1
			l-20.8,20.8l12.3,12.3c-0.8,1.8-1.6,3.6-2.3,5.5h-17.4V244h17.4c0.7,1.9,1.4,3.7,2.3,5.5l-12.3,12.3l20.8,20.8v3.7H110.7z
			 M325,261.7L311.7,275l-10.6-10.6l-3.1,1.7c-3.1,1.7-6.5,3.1-10.1,4.2l-3.4,1v14.9h-18.8v-14.9l-3.4-1c-3.6-1-6.9-2.4-10.1-4.2
			l-3.1-1.7L238.6,275l-13.3-13.3l10.6-10.6l-1.7-3.1c-1.7-3.1-3.1-6.5-4.2-10.1l-1-3.4h-14.9v-18.8H229l1-3.4
			c1-3.6,2.4-6.9,4.2-10.1l1.7-3.1l-10.6-10.6l13.3-13.3l10.6,10.6l3.1-1.7c3.1-1.7,6.5-3.1,10.1-4.2l3.4-1v-14.9h18.8V179l3.4,1
			c3.6,1,6.9,2.4,10.1,4.2l3.1,1.7l10.6-10.6l13.3,13.3l-10.6,10.6l1.7,3.1c1.7,3.1,3.1,6.5,4.2,10.1l1,3.4h14.9v18.8h-14.9l-1,3.4
			c-1,3.6-2.4,6.9-4.2,10.1l-1.7,3.1L325,261.7z"/>
	</g>
	<g class="st1">
		<g>
			<path class="st3" d="M267.6,220.6c-2.1,5.1,0.3,11,5.5,13.1c5.1,2.1,11-0.3,13.1-5.5c2.1-5.1-0.3-11-5.5-13.1
				c-0.5-0.2-1.1-0.4-1.6-0.5l-9.2-28.1l-6.4,2.1l8.8,26.8C270.2,216.6,268.5,218.3,267.6,220.6z M279.9,225.7
				c-0.7,1.7-2.7,2.5-4.4,1.8c-1.7-0.7-2.5-2.7-1.8-4.4s2.7-2.5,4.4-1.8C279.8,222.1,280.7,224,279.9,225.7z"/>
			<path class="st3" d="M272.3,261.8l0.5-6.7c-15.5-1.3-27.6-14.5-27.6-30c0-7.4,2.7-14.5,7.6-20l-5-4.5c-6,6.8-9.3,15.4-9.3,24.4
				C238.5,244.1,253.3,260.2,272.3,261.8z"/>
		</g>
	</g>
</g>
<g class="st0">
	<g class="st1">
		<g>
			<g>
				<path class="st2" d="M99.9,165.7c-9.5,0-17.2-7.7-17.2-17.2c0-9.5,7.7-17.2,17.2-17.2s17.2,7.7,17.2,17.2
					C117.1,157.9,109.3,165.7,99.9,165.7z M99.9,141.1c-4.1,0-7.4,3.3-7.4,7.4c0,4.1,3.3,7.4,7.4,7.4s7.4-3.3,7.4-7.4
					C107.2,144.4,103.9,141.1,99.9,141.1z"/>
			</g>
		</g>
		<g>
			<g>
				<path class="st2" d="M134.3,165.7c-9.5,0-17.2-7.7-17.2-17.2c0-9.5,7.7-17.2,17.2-17.2c9.5,0,17.2,7.7,17.2,17.2
					C151.5,157.9,143.7,165.7,134.3,165.7z M134.3,141.1c-4.1,0-7.4,3.3-7.4,7.4c0,4.1,3.3,7.4,7.4,7.4c4.1,0,7.4-3.3,7.4-7.4
					C141.6,144.4,138.3,141.1,134.3,141.1z"/>
			</g>
		</g>
		<g>
			<g>
				<path class="st2" d="M267,165.7c-9.5,0-17.2-7.7-17.2-17.2c0-9.5,7.7-17.2,17.2-17.2c9.5,0,17.2,7.7,17.2,17.2
					C284.2,157.9,276.5,165.7,267,165.7z M267,141.1c-4.1,0-7.4,3.3-7.4,7.4c0,4.1,3.3,7.4,7.4,7.4c4.1,0,7.4-3.3,7.4-7.4
					C274.4,144.4,271,141.1,267,141.1z"/>
			</g>
		</g>
		<g>
			<g>
				<path class="st2" d="M301.4,165.7c-9.5,0-17.2-7.7-17.2-17.2c0-9.5,7.7-17.2,17.2-17.2c9.5,0,17.2,7.7,17.2,17.2
					C318.6,157.9,310.9,165.7,301.4,165.7z M301.4,141.1c-4.1,0-7.4,3.3-7.4,7.4c0,4.1,3.3,7.4,7.4,7.4s7.4-3.3,7.4-7.4
					C308.8,144.4,305.5,141.1,301.4,141.1z"/>
			</g>
		</g>
		<g>
			<path class="st3" d="M161.3,13.3H126c-7.6,0-13.9,5.7-14.7,13.4L106,82.1H87.6v-9.8H67.9c-10.8,0-19.7,8.8-19.7,19.7
				s8.8,19.7,19.7,19.7h19.7v-1.1l10.1,6.1h-0.3c-16.3,0-29.5,13.2-29.5,29.5v49.2c-8.1,0-14.7,6.6-14.7,14.7v19.7
				c0,8.1,6.6,14.7,14.7,14.7h4.9v22.1c0,12.2,9.9,22.1,22.1,22.1s22.1-9.9,22.1-22.1v-22.1h167.1v22.1c0,12.2,9.9,22.1,22.1,22.1
				c12.2,0,22.1-9.9,22.1-22.1v-22.1h4.9c8.1,0,14.7-6.6,14.7-14.7v-19.7c0-8.1-6.6-14.7-14.7-14.7V146c0-16.3-13.2-29.5-29.5-29.5
				h-0.3l10.1-6.1v1.1h19.7c10.8,0,19.7-8.8,19.7-19.7s-8.8-19.7-19.7-19.7h-19.7v9.8h-18.5l-5.3-55.5c-0.7-7.6-7-13.3-14.7-13.3
				h-35.3 M323.5,82.1h9.8c5.4,0,9.8,4.4,9.8,9.8c0,5.4-4.4,9.8-9.8,9.8h-9.8V82.1z M313.7,91.9v7l-16,9.6l-1.6-16.6H313.7z
				 M230.1,13.3h-59 M121.1,27.6c0.2-2.5,2.3-4.5,4.9-4.5h35.3h78.6h35.3c2.6,0,4.7,1.9,4.9,4.4l8.5,88.9h-176L121.1,27.6z
				 M232.1,155.8h-63.1l-0.8-9.8H233L232.1,155.8z M231.3,165.7l-0.8,9.8h-59.8l-0.8-9.8H231.3z M233.8,136.2h-66.3l-0.8-9.8h68
				L233.8,136.2z M77.7,101.8h-9.8c-5.4,0-9.8-4.4-9.8-9.8c0-5.4,4.4-9.8,9.8-9.8h9.8V101.8z M87.6,91.9h17.5l-1.6,16.6l-16-9.6
				L87.6,91.9L87.6,91.9z M77.7,146c0-10.8,8.8-19.7,19.7-19.7h4.4h55l4.2,50c0.4,5.1,4.7,9,9.8,9h59.8c5.1,0,9.4-4,9.8-9l4.2-50h55
				h4.4c10.8,0,19.7,8.8,19.7,19.7v49.2H77.7V146z M107.2,266.4c0,6.8-5.5,12.3-12.3,12.3s-12.3-5.5-12.3-12.3v-22.1h24.6
				C107.2,244.3,107.2,266.4,107.2,266.4z M318.6,266.4c0,6.8-5.5,12.3-12.3,12.3s-12.3-5.5-12.3-12.3v-22.1h24.6L318.6,266.4
				L318.6,266.4z M338.3,229.6c0,2.7-2.2,4.9-4.9,4.9h-4.9h-44.2H117.1H72.8h-4.9c-2.7,0-4.9-2.2-4.9-4.9v-19.7
				c0-2.7,2.2-4.9,4.9-4.9h265.4c2.7,0,4.9,2.2,4.9,4.9V229.6z"/>
			<rect x="141.6" y="67.3" transform="matrix(0.6 -0.8 0.8 0.6 13.5945 171.703)" class="st3" width="73.7" height="9.8"/>
			
				<rect x="181" y="67.3" transform="matrix(0.6002 -0.7999 0.7999 0.6002 29.2986 203.1295)" class="st3" width="73.7" height="9.8"/>
		</g>
	</g>
</g>
<g class="st0">
	<g class="st1">
		<g>
			<rect x="69.1" y="44.5" class="st2" width="262.5" height="29.6"/>
		</g>
		<g>
			<path class="st3" d="M318.9,19.1H81.8c-7,0-12.7,5.7-12.7,12.7v144c0,7,5.7,12.7,12.7,12.7v93.1h118.5v-93.1h118.5
				c7,0,12.7-5.7,12.7-12.7v-144C331.6,24.8,325.9,19.1,318.9,19.1z M191.8,196.9h-8.5v8.5h8.5v50.8h-8.5v8.5h8.5v8.5H90.2v-8.5h8.5
				v-8.5h-8.5v-50.8h8.5v-8.5h-8.5v-8.5h4.2h21.2h50.8h21.2h4.2L191.8,196.9L191.8,196.9z M179.1,179.9h-12.7V163
				c0-14-11.4-25.4-25.4-25.4c-14,0-25.4,11.4-25.4,25.4v16.9h-12.7V163c0-21,17.1-38.1,38.1-38.1s38.1,17.1,38.1,38.1L179.1,179.9
				L179.1,179.9z M158,179.9h-33.9V163c0-9.3,7.6-16.9,16.9-16.9c9.3,0,16.9,7.6,16.9,16.9V179.9z M323.1,175.7
				c0,2.3-1.9,4.2-4.2,4.2H200.3h-12.7V163c0-25.7-20.9-46.6-46.6-46.6S94.5,137.3,94.5,163V180H81.8c-2.3,0-4.2-1.9-4.2-4.2v-144
				c0-2.3,1.9-4.2,4.2-4.2h237.1c2.3,0,4.2,1.9,4.2,4.2V175.7z"/>
			<path class="st3" d="M141,201.1c-9.3,0-16.9,7.6-16.9,16.9c0,4.1,1.5,8,4.2,11.1v31.2h25.4v-31.2c2.7-3.1,4.2-7,4.2-11.1
				C158,208.7,150.4,201.1,141,201.1z M146.7,224.3l-1.4,1.3v26.3h-8.5v-26.3l-1.4-1.3c-1.8-1.6-2.8-3.9-2.8-6.3
				c0-4.7,3.8-8.5,8.5-8.5s8.5,3.8,8.5,8.5C149.5,220.4,148.5,222.7,146.7,224.3z"/>
		</g>
	</g>
</g>
<g class="st0">
	<g class="st1">
		<circle class="st2" cx="189.7" cy="88.9" r="40.2"/>
		<path class="st3" d="M318.9,19.1H81.8c-7,0-12.7,5.7-12.7,12.7v122.8c0,7,5.7,12.7,12.7,12.7h45.3c-0.6,0.4-1.1,0.8-1.6,1.3
			c-3.6,3.6-5.6,8.4-5.6,13.5c0,5.1,2,9.9,5.6,13.5l45.2,45.2v40.8h8.5v-44.3l-47.7-47.7c-2-2-3.1-4.7-3.1-7.5
			c0-2.8,1.1-5.5,3.1-7.5c4-4,11-4,15,0l32.7,32.7V93.2c0-5.8,4.7-10.6,10.6-10.6c5.8,0,10.6,4.7,10.6,10.6V144v10.6h8.5V144
			c0-5.8,4.7-10.6,10.6-10.6c5.8,0,10.6,4.7,10.6,10.6v4.2v6.4h8.5v-6.4c0-5.8,4.7-10.6,10.6-10.6c5.8,0,10.6,4.7,10.6,10.6v8.5v2.1
			h8.5v-2.1c0-5.8,4.7-10.6,10.6-10.6c5.8,0,10.6,4.7,10.6,10.6v6.4v84.7c0,7-5.7,12.7-12.7,12.7h-4.2v21.2h8.5v-13.1
			c9.6-2,16.9-10.5,16.9-20.7v-80.4h21.2c7,0,12.7-5.7,12.7-12.7V31.8C331.6,24.8,325.9,19.1,318.9,19.1z M77.5,154.5V93.2V31.8
			c0-2.3,1.9-4.2,4.2-4.2h25.4v65.6v65.6H81.8C79.4,158.8,77.5,156.9,77.5,154.5z M152.4,168.6c-0.5-0.5-1.1-0.9-1.6-1.3h19.9v19.6
			L152.4,168.6z M278.6,137.6c-4.5,0-8.5,1.6-11.8,4.2c-2.6-7.4-9.6-12.7-17.9-12.7c-5.1,0-9.8,2.1-13.2,5.4
			c-3.3-5.7-9.4-9.6-16.4-9.6c-3.9,0-7.6,1.2-10.6,3.2v-35c0-10.5-8.5-19.1-19.1-19.1s-19.1,8.5-19.1,19.1v65.6h-55V27.5h173.6
			v113.3C286.2,138.8,282.6,137.6,278.6,137.6z M323.1,154.5c0,2.3-1.9,4.2-4.2,4.2h-21.2v-2.1V27.5h21.2c2.3,0,4.2,1.9,4.2,4.2
			V154.5z"/>
		<rect x="306.2" y="103.7" class="st3" width="8.5" height="8.5"/>
		<rect x="306.2" y="74.1" class="st3" width="8.5" height="25.4"/>
		<path class="st3" d="M92.3,108c8.2,0,14.8-6.6,14.8-14.8s-6.6-14.8-14.8-14.8S77.5,85,77.5,93.2S84.2,108,92.3,108z M92.3,86.8
			c3.5,0,6.4,2.8,6.4,6.4c0,3.5-2.8,6.4-6.4,6.4c-3.5,0-6.4-2.8-6.4-6.4C86,89.7,88.8,86.8,92.3,86.8z"/>
	</g>
</g>
<g class="st0">
	<g class="st1">
		<path class="st3" d="M326.9,122.2h18.8V94.1h-15.1l-4.7-18.8H74.8l-4.7,18.8H55v28.1h18.8v51.6v23.4v65.6H55v28.1h290.6v-28.1
			h-18.8v-62.2l5,1.7l13.7-6.9v-18.5l-19-26.6h0.3V122.2z M82.1,84.7h236.4l2.3,9.4H79.8L82.1,84.7z M64.4,112.8v-9.4h3.4h265.1h3.4
			v9.4h-9.4h-9.4H83.1h-9.4H64.4z M317.5,122.2v18.8H181.6h-7.3H83.1v-18.8H317.5z M312.8,189.1l-9.4,3.1l-9.4-3.1v-6.8l-12-32h13.8
			l17,33.9V189.1z M158.1,262.8v-62.7l4.3,2.2l9.7-3.2v63.8L158.1,262.8L158.1,262.8z M158.1,184.5l21.3-34.2h2.1h6.5L172.2,182v7.1
			l-9,3l-5-2.5v-1.8L158.1,184.5L158.1,184.5z M148.8,187.8H97.2H83.1v-4.7h65.6V187.8z M106.6,197.2h42.2v65.6h-42.2V197.2z
			 M181.6,184.2l17-33.9h13.8l-12,32v6.8l-9.4,3.1l-9.4-3.1L181.6,184.2L181.6,184.2z M272.1,150.3l12.6,33.7v5.1l-9.4,3.1l-9.4-3.1
			v-6l-4.1-32.8H272.1z M252.4,150.3l4.1,33.1v5.7l-9.4,3.1l-9.4-3.1v-5.7l4.1-33.1H252.4z M228.5,182.5l0,6.6l-9.4,3.1l-9.4-3.1
			V184l12.6-33.7h10.2L228.5,182.5z M205,197.4l14.1,4.7l14.1-4.7l14.1,4.7l14.1-4.7l14.1,4.7l14.1-4.7l4.7,1.6v40.4H205V197.4z
			 M83.1,150.3h85.3l-14.6,23.4H83.1V150.3z M83.1,197.2h14.1v65.6H83.1V197.2z M336.2,281.6H64.4v-9.4h9.4h9.4h14.1h60.9h178.1
			V281.6z M317.5,262.8H181.6V199l9.4,3.1l4.7-1.6v48.2h107.8v-46.6l14.1-4.7L317.5,262.8L317.5,262.8L317.5,262.8z M336.2,189.6
			l-5,2.5l-9-3V182l-15.9-31.7h8.8l21.2,29.6L336.2,189.6L336.2,189.6z"/>
		<path class="st2" d="M303.4,84.7H97.2V23.8c0-7.8,6.3-14.1,14.1-14.1h178.1c7.8,0,14.1,6.3,14.1,14.1L303.4,84.7L303.4,84.7z"/>
		<path class="st3" d="M134.7,61.2H130c-2.6,0-4.7-2.1-4.7-4.7h-9.4c0,7.8,6.3,14.1,14.1,14.1h4.7c7.8,0,14.1-6.3,14.1-14.1
			s-6.3-14.1-14.1-14.1H130c-2.6,0-4.7-2.1-4.7-4.7s2.1-4.7,4.7-4.7h4.7c2.6,0,4.7,2.1,4.7,4.7h9.4c0-7.8-6.3-14.1-14.1-14.1H130
			c-7.8,0-14.1,6.3-14.1,14.1s6.3,14.1,14.1,14.1h4.7c2.6,0,4.7,2.1,4.7,4.7C139.4,59.1,137.3,61.2,134.7,61.2z"/>
		<polygon class="st3" points="167.5,51.9 186.2,51.9 186.2,70.6 195.6,70.6 195.6,23.8 186.2,23.8 186.2,42.5 167.5,42.5 
			167.5,23.8 158.1,23.8 158.1,70.6 167.5,70.6 		"/>
		<path class="st3" d="M223.8,70.6c10.3,0,18.8-8.4,18.8-18.8v-9.4c0-10.3-8.4-18.8-18.8-18.8S205,32.2,205,42.5v9.4
			C205,62.2,213.4,70.6,223.8,70.6z M214.4,42.5c0-5.2,4.2-9.4,9.4-9.4s9.4,4.2,9.4,9.4v9.4c0,5.2-4.2,9.4-9.4,9.4s-9.4-4.2-9.4-9.4
			V42.5z"/>
		<path class="st3" d="M261.2,51.9h9.4c7.8,0,14.1-6.3,14.1-14.1s-6.3-14.1-14.1-14.1h-18.8v46.9h9.4V51.9z M261.2,33.1h9.4
			c2.6,0,4.7,2.1,4.7,4.7s-2.1,4.7-4.7,4.7h-9.4V33.1z"/>
	</g>
</g>
<g class="st0">
	<g class="st1">
		<polygon class="st4" points="285.1,256 321.6,271.6 285.1,186.5 285.1,255.4 		"/>
		<polygon class="st4" points="171.6,178.4 171.6,206.7 200,218.9 200,150 		"/>
		<polygon class="st4" points="102.7,36.5 107.7,47.2 118.9,48.9 110.8,57.2 112.7,68.9 102.7,63.4 92.7,68.9 94.6,57.2 86.5,48.9 
			97.7,47.2 		"/>
	</g>
	<path class="st5" d="M253.4,102.3l10.2-10.2l-5.7-5.7L136.3,207.9l5.7,5.7l10.2-10.2L320,275.3c0.5,0.2,1.1,0.3,1.6,0.3
		c1.1,0,2.1-0.4,2.9-1.2c1.2-1.2,1.5-2.9,0.9-4.5L253.4,102.3z M252.7,218.9h-20.3v-8.1h20.3V218.9z M252.7,202.7h-20.3v-8.1h20.3
		V202.7z M252.7,186.5h-20.3v-8.1h20.3V186.5z M252.7,170.3h-20.3v-8.1h20.3V170.3z M252.7,154.1h-20.3v-8.1h20.3V154.1z
		 M232.4,137.8v-8.1h20.3v8.1H232.4z M232.4,227h20.3v10.6l-20.3-8.7V227z M252.9,121.6h-0.2h-18.6l13.2-13.2L252.9,121.6z
		 M224.3,131.4v94.1l-65.9-28.2L224.3,131.4z M260.8,241.1V140l53.1,123.9L260.8,241.1z"/>
	<path class="st5" d="M139.9,184.7l6.7-4.5l-2.6-4c-9.3-13.9-23.3-24.1-39.4-28.7c-3.6-1-7.3-1.5-11-1.5c-10.6,0-19.3,8.6-19.3,19.3
		c0,4.3,1.7,8.4,4.8,11.5c6.3,6.3,16.6,6.3,22.9,0l3.6-3.6l-5.7-5.7l-3.6,3.6c-3.2,3.2-8.3,3.2-11.5,0c-1.5-1.5-2.4-3.6-2.4-5.7
		c0-6.2,5-11.2,11.2-11.2c3,0,5.9,0.4,8.8,1.2c14.3,4.1,26.6,13.1,34.8,25.4L139.9,184.7z"/>
	<path class="st5" d="M226.2,94l4,2.6l4.5-6.7l-4-2.6c-12.3-8.2-21.4-20.6-25.4-34.8c-0.8-2.8-1.2-5.8-1.2-8.8
		c0-6.2,5-11.2,11.2-11.2c2.2,0,4.2,0.8,5.7,2.4c3.2,3.2,3.2,8.3,0,11.5l-3.6,3.6l5.7,5.7l3.6-3.6c6.3-6.3,6.3-16.6,0-22.9
		c-3.1-3.1-7.1-4.8-11.5-4.8c-10.6,0-19.3,8.6-19.3,19.3c0,3.7,0.5,7.4,1.5,11C202.1,70.7,212.3,84.7,226.2,94z"/>
	<path class="st5" d="M169.2,102c0.6,0.4,5.6,4.2,9,5.9l3.6-7.3c-2.3-1.1-6.4-4.1-7.8-5.2c-8.8-6.5-16.4-14.3-22.5-23.4
		c-5.4-8.2-8.3-17.7-8.3-27.5c0-6.7,5.5-12.2,12.2-12.2c4.5,0,8.1,3.6,8.1,8.1s-3.6,8.1-8.1,8.1v8.1c8.9,0,16.2-7.3,16.2-16.2
		s-7.3-16.2-16.2-16.2c-11.2,0-20.3,9.1-20.3,20.3c0,11.4,3.3,22.5,9.7,32C151.4,86.4,159.6,95,169.2,102z"/>
	<polygon class="st5" points="209.8,113.9 190.1,104.9 189.6,104.7 186.4,112.1 206.4,121.3 	"/>
	<path class="st5" d="M155.1,136.3l8.8,19.4l7.4-3.4l-8.8-19.4c-5.8-12.8-14.1-24-24.6-33.4l-5.4,6
		C142.1,114.2,149.7,124.5,155.1,136.3z"/>
	<path class="st5" d="M90.6,117.6c8.9,0,16.2-7.3,16.2-16.2h-8.1c0,4.5-3.6,8.1-8.1,8.1s-8.1-3.6-8.1-8.1c0-6.7,5.5-12.2,12.2-12.2
		c7.7,0,15.5,1.9,22.3,5.4c0.1,0,5.1,2.9,9.7,6.2l4.7-6.6c-5-3.5-10.2-6.5-10.6-6.7c-8.1-4.1-17.2-6.3-26.2-6.3
		c-11.2,0-20.3,9.1-20.3,20.3C74.3,110.3,81.6,117.6,90.6,117.6z"/>
	<rect x="94.6" y="227" class="st5" width="8.1" height="12.2"/>
	
		<rect x="81.7" y="232.4" transform="matrix(0.7071 -0.7071 0.7071 0.7071 -143.4841 130.4884)" class="st5" width="8.1" height="12.2"/>
	<rect x="74.3" y="247.3" class="st5" width="12.2" height="8.1"/>
	
		<rect x="79.7" y="260.2" transform="matrix(0.7071 -0.7071 0.7071 0.7071 -161.7232 138.0237)" class="st5" width="12.2" height="8.1"/>
	<rect x="94.6" y="263.5" class="st5" width="8.1" height="12.2"/>
	
		<rect x="107.5" y="258.2" transform="matrix(0.7071 -0.7071 0.7071 0.7071 -154.1636 156.2776)" class="st5" width="8.1" height="12.2"/>
	<rect x="110.8" y="247.3" class="st5" width="12.2" height="8.1"/>
	
		<rect x="105.5" y="234.4" transform="matrix(0.7071 -0.7071 0.7071 0.7071 -135.9224 148.7318)" class="st5" width="12.2" height="8.1"/>
	<rect x="297.3" y="24.3" class="st5" width="8.1" height="12.2"/>
	
		<rect x="284.4" y="29.7" transform="matrix(0.7071 -0.7071 0.7071 0.7071 59.1965 214.4188)" class="st5" width="8.1" height="12.2"/>
	<rect x="277" y="44.6" class="st5" width="12.2" height="8.1"/>
	
		<rect x="282.4" y="57.5" transform="matrix(0.7071 -0.7071 0.7071 0.7071 40.9478 221.9922)" class="st5" width="12.2" height="8.1"/>
	<rect x="297.3" y="60.8" class="st5" width="8.1" height="12.2"/>
	
		<rect x="310.2" y="55.5" transform="matrix(0.7071 -0.7071 0.7071 0.7071 48.5005 240.2247)" class="st5" width="8.1" height="12.2"/>
	<rect x="313.5" y="44.6" class="st5" width="12.2" height="8.1"/>
	
		<rect x="308.2" y="31.7" transform="matrix(0.7071 -0.7071 0.7071 0.7071 66.747 232.6715)" class="st5" width="12.2" height="8.1"/>
</g>
<g class="st0">
	<polygon class="st6" points="236.1,144.4 191,144.4 181.9,135.3 181.9,90.2 191,81.2 236.1,81.2 245.1,90.2 245.1,135.3 	"/>
	<g class="st1">
		<path class="st3" d="M317.3,112.8c0-56.5-45.9-103-102.4-103.7c-0.4,0-0.9,0-1.3,0c-48.7,0-91.3,34.7-101.6,83
			c-2.5,11.9-2.8,24.2-0.9,36.6l-30.5,54.6l33.7,9.7l0.1,55.3h45.1v40.6h9v-49.6h-45.1l-0.1-53L94,177.7l26.5-47.4l-0.3-1.6
			c-2-11.7-1.8-23.4,0.6-34.8c9.4-44.1,48.3-75.9,92.8-75.9c0.4,0,0.8,0,1.2,0c51.5,0.7,93.5,43.1,93.5,94.7l0,16.5
			c0,36.1-17.8,70-47.6,90.5l-2,1.3v67.6h9v-62.9c31.1-22.3,49.6-58.3,49.6-96.6L317.3,112.8z"/>
		<path class="st3" d="M231.6,31.6c-7.5,0-13.5,6.1-13.5,13.5c0,5.9,3.8,10.8,9,12.7v23.4h9V57.8c5.2-1.9,9-6.8,9-12.7
			C245.1,37.6,239,31.6,231.6,31.6z M231.6,49.6c-2.5,0-4.5-2-4.5-4.5s2-4.5,4.5-4.5c2.5,0,4.5,2,4.5,4.5S234.1,49.6,231.6,49.6z"/>
		<path class="st3" d="M195.5,31.6c-7.5,0-13.5,6.1-13.5,13.5c0,5.9,3.8,10.8,9,12.7v23.4h9V57.8c5.2-1.9,9-6.8,9-12.7
			C209,37.6,202.9,31.6,195.5,31.6z M195.5,49.6c-2.5,0-4.5-2-4.5-4.5s2-4.5,4.5-4.5s4.5,2,4.5,4.5S198,49.6,195.5,49.6z"/>
		<path class="st3" d="M257.3,90.2h-12.2v9H260l16.7-11.1v-7.8c5.2-1.9,9-6.8,9-12.7c0-7.5-6.1-13.5-13.5-13.5
			c-7.5,0-13.5,6.1-13.5,13.5c0,5.9,3.8,10.8,9,12.7v2.9L257.3,90.2z M272.2,63.1c2.5,0,4.5,2,4.5,4.5s-2,4.5-4.5,4.5
			c-2.5,0-4.5-2-4.5-4.5S269.7,63.1,272.2,63.1z"/>
		<path class="st3" d="M276.7,171.4c0-5.9-3.8-10.8-9-12.7v-23.4h5.3c1.9,5.2,6.8,9,12.7,9c7.5,0,13.5-6.1,13.5-13.5
			c0-7.5-6.1-13.5-13.5-13.5c-5.9,0-10.8,3.8-12.7,9h-27.9v9h13.5v23.4c-5.2,1.9-9,6.8-9,12.7c0,7.5,6.1,13.5,13.5,13.5
			C270.6,185,276.7,178.9,276.7,171.4z M285.7,126.3c2.5,0,4.5,2,4.5,4.5s-2,4.5-4.5,4.5c-2.5,0-4.5-2-4.5-4.5
			S283.2,126.3,285.7,126.3z M258.7,171.4c0-2.5,2-4.5,4.5-4.5c2.5,0,4.5,2,4.5,4.5c0,2.5-2,4.5-4.5,4.5
			C260.7,176,258.7,173.9,258.7,171.4z"/>
		<path class="st3" d="M169.8,135.3h12.2v-9H167l-16.7,11.1v12.3c-5.2,1.9-9,6.8-9,12.7c0,7.5,6.1,13.5,13.5,13.5
			s13.5-6.1,13.5-13.5c0-5.9-3.8-10.8-9-12.7v-7.4L169.8,135.3z M154.9,166.9c-2.5,0-4.5-2-4.5-4.5c0-2.5,2-4.5,4.5-4.5
			s4.5,2,4.5,4.5C159.4,164.9,157.4,166.9,154.9,166.9z"/>
		<path class="st3" d="M154,90.2c-1.9-5.2-6.8-9-12.7-9c-7.5,0-13.5,6.1-13.5,13.5c0,7.5,6.1,13.5,13.5,13.5c5.9,0,10.8-3.8,12.7-9
			h27.9v-9h-13.5v-9.9c5.2-1.9,9-6.8,9-12.7c0-7.5-6.1-13.5-13.5-13.5s-13.5,6.1-13.5,13.5c0,5.9,3.8,10.8,9,12.7v9.9H154z
			 M163.9,63.1c2.5,0,4.5,2,4.5,4.5s-2,4.5-4.5,4.5s-4.5-2-4.5-4.5S161.4,63.1,163.9,63.1z M141.3,99.2c-2.5,0-4.5-2-4.5-4.5
			s2-4.5,4.5-4.5s4.5,2,4.5,4.5S143.8,99.2,141.3,99.2z"/>
		<path class="st3" d="M236.1,163.2v-18.9h-9v18.9c-5.2,1.9-9,6.8-9,12.7c0,7.5,6.1,13.5,13.5,13.5s13.5-6.1,13.5-13.5
			C245.1,170.1,241.3,165.1,236.1,163.2z M231.6,180.5c-2.5,0-4.5-2-4.5-4.5c0-2.5,2-4.5,4.5-4.5c2.5,0,4.5,2,4.5,4.5
			C236.1,178.4,234.1,180.5,231.6,180.5z"/>
		<path class="st3" d="M200,163.2v-18.9h-9v18.9c-5.2,1.9-9,6.8-9,12.7c0,7.5,6.1,13.5,13.5,13.5c7.5,0,13.5-6.1,13.5-13.5
			C209,170.1,205.2,165.1,200,163.2z M195.5,180.5c-2.5,0-4.5-2-4.5-4.5c0-2.5,2-4.5,4.5-4.5s4.5,2,4.5,4.5
			C200,178.4,198,180.5,195.5,180.5z"/>
		<rect x="195.5" y="99.2" class="st3" width="36.1" height="9"/>
		<rect x="195.5" y="117.3" class="st3" width="22.6" height="9"/>
	</g>
</g>
<g class="st0">
	<path class="st6" d="M339.4,157.2V13.3H200v134.9h4.5v9h42c0.3,0.9,0.3,1.9,0.1,2.9c-0.8,3.4-0.9,7-0.3,10.7
		c2,11.7,11.8,20.9,23.5,22.2c16.3,1.8,30-10.9,30-26.8c0-2-0.2-3.9-0.6-5.8c-0.2-1.1-0.2-2.2,0.1-3.2L339.4,157.2L339.4,157.2z"/>
	<g class="st1">
		<path class="st3" d="M305.1,157.2h34.3v-4.5c0-72.6-53.9-132.5-125.5-139.4l-0.9,8.9c65.4,6.3,115.1,60,117.3,125.9h-25.2
			c-3.2,0-6.2,1.4-8.1,3.9c-2.1,2.6-2.9,6-2.1,9.3c0.3,1.6,0.5,3.2,0.5,4.8c0,6.4-2.7,12.5-7.5,16.7c-4.8,4.3-11.1,6.3-17.6,5.6
			c-9.7-1.1-18-8.8-19.6-18.5c-0.5-3-0.4-6,0.3-8.9c0.7-3.1,0-6.3-2-8.8c-2.1-2.6-5.2-4.1-8.5-4.1h-36v9h36c0.6,0,1.1,0.3,1.5,0.7
			c0.3,0.4,0.4,0.7,0.3,1.1c-1,4.1-1.1,8.3-0.4,12.5c2.3,13.7,13.6,24.4,27.5,25.9c1.2,0.1,2.3,0.2,3.5,0.2c7.8,0,15.3-2.8,21.1-8
			c6.7-6,10.5-14.5,10.5-23.4c0-2.3-0.2-4.6-0.7-6.7c-0.1-0.6,0-1.3,0.4-1.7C304.3,157.3,304.6,157.2,305.1,157.2z"/>
		<path class="st3" d="M195.5,193.1c0,0.6-0.3,1.1-0.7,1.5c-0.4,0.3-0.7,0.4-1.1,0.3c-4.1-1-8.3-1.1-12.5-0.4
			c-13.7,2.3-24.4,13.6-25.9,27.5c-1,8.9,1.9,17.9,7.8,24.5c6,6.7,14.5,10.5,23.4,10.5c2.3,0,4.6-0.2,6.7-0.7c0.7-0.1,1.3,0,1.7,0.4
			c0.4,0.3,0.5,0.7,0.5,1.1v34.3h4.5c72.6,0,132.5-53.9,139.4-125.5l-8.9-0.9c-6.3,65.4-60,115.1-125.9,117.3v-25.2
			c0-3.2-1.4-6.2-3.9-8.1c-2.6-2.1-6-2.9-9.3-2.1c-7.7,1.7-16.2-1-21.5-7c-4.3-4.8-6.3-11.1-5.6-17.6c1.1-9.7,8.8-18,18.5-19.6
			c3-0.5,6-0.4,8.9,0.3c3.1,0.7,6.3,0,8.8-2c2.6-2.1,4.1-5.2,4.1-8.5v-36h-9V193.1L195.5,193.1z"/>
		<path class="st3" d="M159.5,148.2c-0.6,0-1.1-0.3-1.5-0.7c-0.3-0.4-0.4-0.7-0.3-1.1c1-4.1,1.1-8.3,0.4-12.5
			c-2.3-13.7-13.6-24.4-27.5-25.9c-8.9-1-17.9,1.9-24.5,7.8c-6.7,6-10.5,14.5-10.5,23.4c0,2.3,0.2,4.6,0.7,6.7
			c0.1,0.6,0,1.3-0.4,1.7c-0.3,0.4-0.7,0.5-1.1,0.5H60.6v4.5c0,72.6,53.9,132.5,125.5,139.4l0.9-8.9c-65.4-6.3-115.1-60-117.3-125.9
			h25.2c3.2,0,6.2-1.4,8.1-3.9c2.1-2.6,2.9-6,2.1-9.3c-0.3-1.6-0.5-3.2-0.5-4.8c0-6.4,2.7-12.5,7.5-16.7c4.8-4.3,11.1-6.3,17.6-5.6
			c9.7,1.1,18,8.8,19.6,18.5c0.5,3,0.4,6-0.3,8.9c-0.7,3.1,0,6.3,2,8.8c2.1,2.6,5.2,4.1,8.5,4.1h36v-9H159.5z"/>
		<path class="st3" d="M204.5,112.2c0-0.6,0.3-1.1,0.7-1.5c0.4-0.3,0.7-0.4,1.1-0.3c4.1,1,8.3,1.1,12.5,0.4
			c13.7-2.3,24.4-13.6,25.9-27.5c1-8.9-1.9-17.9-7.8-24.5c-6-6.7-14.5-10.5-23.4-10.5c-2.3,0-4.6,0.2-6.7,0.7
			c-0.6,0.1-1.3,0-1.7-0.4c-0.4-0.3-0.5-0.7-0.5-1.1V13.3H200c-72.6,0-132.5,53.9-139.4,125.5l8.9,0.9
			c6.3-65.4,60-115.1,125.9-117.3v25.2c0,3.2,1.4,6.2,3.9,8.1c2.6,2.1,6,2.9,9.3,2.1c7.7-1.7,16.2,1,21.5,7
			c4.3,4.8,6.3,11.1,5.6,17.6c-1.1,9.7-8.8,18-18.5,19.6c-3,0.5-6,0.4-8.9-0.3c-3.1-0.7-6.3,0-8.8,2c-2.6,2.1-4.1,5.2-4.1,8.5v36h9
			L204.5,112.2L204.5,112.2z"/>
	</g>
</g>
<g class="st0">
	<path class="st6" d="M337.6,108.2V72.7H317c-0.9-2.9-2.1-5.8-3.5-8.5L328,49.7l-25.1-25.1l-14.6,14.6c-2.7-1.4-5.6-2.6-8.5-3.5V15
		h-35.5v20.6c-2.9,0.9-5.8,2.1-8.5,3.5l-14.6-14.6l-25.1,25.1l14.6,14.6c-1.4,2.7-2.6,5.6-3.5,8.5h-20.6v35.5h20.6
		c0.9,2.9,2.1,5.8,3.5,8.5l-14.6,14.6l25.1,25.1l14.6-14.6c2.7,1.4,5.6,2.6,8.5,3.5v20.6h35.5v-20.6c2.9-0.9,5.8-2.1,8.5-3.5
		l14.6,14.6l25.1-25.1l-14.6-14.6c1.4-2.7,2.6-5.6,3.5-8.5H337.6z M262.1,121.5c-3.2,0-6.3-0.5-9.2-1.4
		c-5.1-8.3-12.1-15.3-20.4-20.4c-0.9-2.9-1.4-6-1.4-9.2c0-17.2,13.9-31.1,31.1-31.1c17.2,0,31.1,13.9,31.1,31.1
		S279.3,121.5,262.1,121.5z"/>
	<path class="st7" d="M297.6,90.4c0-19.6-15.9-35.5-35.5-35.5s-35.5,15.9-35.5,35.5c0,0.4,0.1,0.8,0.1,1.2C218.5,88,209.5,86,200,86
		c-26.3,0-50.4,15.9-60.9,39.9h-19H89.1h-4.4c-12.2,0-22.2,10-22.2,22.2c0,12.2,10,22.2,22.2,22.2h4.4h31.1H136
		c3.9,14.2,12.3,26.6,24.1,35.5v9.1c-7.5,1.1-13.3,7.5-13.3,15.3c0,5.6,3,10.4,7.4,13.2c-1.8,2.6-2.9,5.7-2.9,9
		c0,5.6,3,10.4,7.4,13.2c-1.8,2.6-2.9,5.7-2.9,9c0,8.6,7,15.5,15.5,15.5h57.7c8.6,0,15.5-7,15.5-15.5c0-3.4-1.1-6.5-2.9-9
		c4.4-2.7,7.4-7.6,7.4-13.2c0-3.4-1.1-6.5-2.9-9c4.4-2.7,7.4-7.6,7.4-13.2c0-7.8-5.8-14.2-13.3-15.3v-9.1
		c16.7-12.6,26.6-32.3,26.6-53.2c0-9.5-2-18.5-5.6-26.7c0.4,0,0.8,0.1,1.2,0.1C281.7,125.9,297.6,110,297.6,90.4z M135.6,134.8h42.2
		v8.9h-57.7v-8.9H135.6z M84.6,161.5c-7.3,0-13.3-6-13.3-13.3c0-7.3,6-13.3,13.3-13.3h4.4v26.6H84.6z M97.9,161.5v-26.6h13.3v26.6
		H97.9z M120.1,161.5v-8.9h57.7v8.9h-43.9H120.1z M233.3,259.1h-4.4h-57.7h-4.4c-3.7,0-6.7-3-6.7-6.7s3-6.7,6.7-6.7h66.6
		c3.7,0,6.7,3,6.7,6.7S237,259.1,233.3,259.1z M228.8,281.3h-57.7c-3.7,0-6.7-3-6.7-6.7s3-6.7,6.7-6.7h57.7c3.7,0,6.7,3,6.7,6.7
		S232.5,281.3,228.8,281.3z M244.4,230.2c0,3.7-3,6.7-6.7,6.7h-4.4h-66.6h-4.4c-3.7,0-6.7-3-6.7-6.7s3-6.7,6.7-6.7h75.4
		C241.4,223.6,244.4,226.6,244.4,230.2z M233,199.9l-1.9,1.3v13.5h-62.1v-13.5l-1.9-1.3c-10.4-7.2-18-17.6-21.9-29.6h41.5v-44.4
		h-37.8c9.8-18.8,29.6-31.1,51.1-31.1c11.2,0,21.6,3.2,30.4,8.8c7.5,4.7,13.9,11.1,18.5,18.5c5.5,8.8,8.8,19.2,8.8,30.4
		C257.7,171.4,248.4,189.1,233,199.9z M236.3,96.8c-0.5-2.1-0.8-4.2-0.8-6.4c0-14.7,11.9-26.6,26.6-26.6c14.7,0,26.6,11.9,26.6,26.6
		s-11.9,26.6-26.6,26.6c-2.2,0-4.3-0.3-6.4-0.8C250.7,108.5,244,101.9,236.3,96.8z"/>
</g>
<g class="st0">
	<g class="st1">
		<path class="st8" d="M228.8,50.5c-15.7,0-30.1,5.2-41.7,14h4.5l1.9,18.9c9.2-8.8,21.6-14.2,35.3-14.2c28.3,0,51.2,22.9,51.2,51.2
			s-22.9,51.2-51.2,51.2s-51.2-22.9-51.2-51.2H159c0,38.5,31.2,69.8,69.8,69.8s69.8-31.2,69.8-69.8S267.3,50.5,228.8,50.5z"/>
		<path class="st8" d="M173,245.8c15.7,0,30.1-5.2,41.7-14h-4.5l-1.9-18.9c-9.2,8.8-21.6,14.2-35.3,14.2
			c-28.3,0-51.2-22.9-51.2-51.2s22.9-51.2,51.2-51.2s51.2,22.9,51.2,51.2h18.6c0-38.5-31.2-69.8-69.8-69.8s-69.8,31.2-69.8,69.8
			S134.5,245.8,173,245.8z"/>
	</g>
	<g class="st1">
		<path class="st9" d="M238.4,261.9l-23.5-18.8l-2.7,1.6c-5.7,3.3-11.9,5.8-18.4,7.6l-3,0.8l-3.3,29.9h-28.9l-3.3-29.9l-3-0.8
			c-6.5-1.8-12.7-4.3-18.4-7.6l-2.7-1.6l-23.5,18.8l-20.4-20.4l18.8-23.5l-1.6-2.7c-3.3-5.7-5.8-11.9-7.6-18.4l-0.8-3.1L66,190.5
			v-28.9l29.9-3.3l0.8-3.1c1.8-6.5,4.3-12.6,7.6-18.4l1.6-2.7l-18.8-23.5l20.4-20.4l23.5,18.8l2.7-1.6c5.7-3.3,11.9-5.8,18.4-7.6
			l3-0.8l3.3-29.9h28.9l3.3,29.9l3,0.8c6.5,1.8,12.7,4.3,18.4,7.6l2.7,1.6l23.5-18.8l20.4,20.4L240,134.1l1.6,2.7
			c3.3,5.7,5.8,11.9,7.6,18.4l9-2.4c-1.7-6.2-4-12.1-7-17.7l20.1-25.1l-32.2-32.2L214,97.8c-4.7-2.4-9.6-4.5-14.7-6.1l-3.6-32h-45.5
			l-3.6,32c-5.1,1.6-10,3.6-14.7,6.1l-25.1-20.1l-32.2,32.2L94.8,135c-2.4,4.7-4.5,9.6-6.1,14.7l-32,3.6v45.5l32,3.6
			c1.6,5.1,3.6,10,6.1,14.7l-20.1,25.1l32.2,32.2l25.1-20.1c4.7,2.4,9.6,4.5,14.7,6.1l3.6,32h45.5l3.6-32c5.1-1.6,10-3.6,14.7-6.1
			l25.1,20.1l29.2-29.2l-6.6-6.6L238.4,261.9z"/>
		<path class="st9" d="M216.3,159.1l8.7-3.4c-8.4-21.6-28.8-35.5-52-35.5c-30.8,0-55.8,25-55.8,55.8s25,55.8,55.8,55.8
			c10.9,0,21.4-3.1,30.4-9l-5.1-7.8c-7.5,4.9-16.3,7.5-25.4,7.5c-25.6,0-46.5-20.9-46.5-46.5s20.9-46.5,46.5-46.5
			C192.3,129.5,209.3,141.1,216.3,159.1z"/>
		<path class="st9" d="M345,143V97.5l-32-3.6c-1.6-5.1-3.6-10-6.1-14.7l20.1-25.1l-32.2-32.2L269.8,42c-4.7-2.4-9.6-4.5-14.7-6.1
			l-3.6-32H206l-3.6,32c-5.1,1.6-10,3.6-14.7,6.1l-25.1-20.1l-29.2,29.2l6.6,6.6l23.4-23.4l23.5,18.8l2.7-1.6
			c5.7-3.3,11.9-5.8,18.4-7.6l3-0.8l3.3-29.9h28.9l3.3,29.9l3,0.8c6.5,1.8,12.7,4.3,18.4,7.6l2.7,1.6l23.5-18.8l20.4,20.4
			l-18.8,23.5l1.6,2.7c3.3,5.7,5.8,11.9,7.6,18.4l0.8,3.1l29.9,3.3v28.9l-29.9,3.3L305,141c-1.8,6.5-4.3,12.6-7.6,18.4l-1.6,2.7
			l18.8,23.5l-20.4,20.4l-23.5-18.8l-2.7,1.6c-5.7,3.3-11.9,5.8-18.4,7.6l-3,0.8l-3.3,29.9h-28.9l-3.3-29.9l-3-0.8
			c-6.5-1.8-12.7-4.3-18.4-7.6l-2.7-1.6l-23.5,18.8l-20.4-20.4l18.8-23.5l-1.6-2.7c-3.3-5.7-5.8-11.9-7.6-18.4l-9,2.4
			c1.7,6.2,4,12.1,7,17.7l-20.1,25.1l32.2,32.2l25.1-20.1c4.7,2.4,9.6,4.5,14.7,6.1l3.6,32h45.5l3.6-32c5.1-1.6,10-3.6,14.7-6.1
			l25.1,20.1l32.2-32.2L307,161.2c2.4-4.7,4.5-9.6,6.1-14.7L345,143z"/>
		<path class="st9" d="M228.8,176c30.8,0,55.8-25,55.8-55.8s-25-55.8-55.8-55.8c-8.9,0-17.5,2-25.4,6.1l4.2,8.3
			c6.6-3.4,13.7-5.1,21.1-5.1c25.6,0,46.5,20.9,46.5,46.5s-20.9,46.5-46.5,46.5c-19.3,0-36.3-11.6-43.3-29.6l-8.7,3.4
			C185.2,162.1,205.6,176,228.8,176z"/>
	</g>
	<g class="st1">
		<rect x="224.1" y="31.9" class="st8" width="9.3" height="9.3"/>
		
			<rect x="164.9" y="174.8" transform="matrix(0.7071 -0.7071 0.7071 0.7071 -77.1825 172.4699)" class="st8" width="9.3" height="9.3"/>
		<rect x="224.1" y="199.3" class="st8" width="9.3" height="9.3"/>
		
			<rect x="283.3" y="174.8" transform="matrix(0.7071 -0.7071 0.7071 0.7071 -42.5138 256.1732)" class="st8" width="9.3" height="9.3"/>
		<rect x="307.8" y="115.6" class="st8" width="9.3" height="9.3"/>
		
			<rect x="283.3" y="56.4" transform="matrix(0.7071 -0.7071 0.7071 0.7071 41.1812 221.5052)" class="st8" width="9.3" height="9.3"/>
		<rect x="168.3" y="87.7" class="st8" width="9.3" height="9.3"/>
		
			<rect x="109.1" y="112.2" transform="matrix(0.7071 -0.7071 0.7071 0.7071 -49.2919 114.6885)" class="st8" width="9.3" height="9.3"/>
		<rect x="84.6" y="171.4" class="st8" width="9.3" height="9.3"/>
		
			<rect x="109.1" y="230.6" transform="matrix(0.7071 -0.7071 0.7071 0.7071 -132.9868 149.3562)" class="st8" width="9.3" height="9.3"/>
		<rect x="168.3" y="255.1" class="st8" width="9.3" height="9.3"/>
		
			<rect x="227.5" y="112.2" transform="matrix(0.7071 -0.7071 0.7071 0.7071 -14.62 198.3905)" class="st8" width="9.3" height="9.3"/>
	</g>
</g>
<g class="st0">
	<g class="st1">
		<path class="st8" d="M176.7,233.3c0-5.1,4.1-9.2,9.2-9.2h4.6v-9.2c0-3.8,2.3-7.1,5.7-8.5l3.6-0.7v-73.9h-23.1v-18.5l23-14.9l0-1.4
			V53.2H70.5v184.7h106.2V233.3z"/>
		<circle class="st8" cx="255.2" cy="99.3" r="27.7"/>
	</g>
	<rect x="121.3" y="265.6" class="st5" width="27.7" height="9.2"/>
	<path class="st5" d="M338.4,136.3v-25.6l-83.1-53.8l-36.9,23.9V30.1c0-12.7-10.4-23.1-23.1-23.1H75.1C62.4,7,52,17.3,52,30.1v240.1
		c0,12.7,10.4,23.1,23.1,23.1h120.1c12.7,0,23.1-10.4,23.1-23.1v-13.9h120.1v-23.1c0-7.6-6.2-13.9-13.9-13.9v-4.6
		c0-6-3.9-11.1-9.2-13v-65.5H338.4z M318.1,108.6h-30.5v9.2h41.6v9.2H181.3v-9.2h41.6v-9.2h-30.5l62.9-40.7L318.1,108.6z
		 M172.1,110.7v25.6h23.1v65.5c-5.4,1.9-9.2,7-9.2,13v4.6c-7.6,0-13.9,6.2-13.9,13.9v13.9H61.3V43.9h147.8v42.8L172.1,110.7z
		 M75.1,16.2h120.1c7.6,0,13.9,6.2,13.9,13.9v4.6H61.3v-4.6C61.3,22.4,67.5,16.2,75.1,16.2z M209.1,270.2c0,7.6-6.2,13.9-13.9,13.9
		H75.1c-7.6,0-13.9-6.2-13.9-13.9v-13.9h110.8h4.6h32.3V270.2z M306,219.4v9.2h18.5c2.5,0,4.6,2.1,4.6,4.6v13.9H181.3v-13.9
		c0-2.5,2.1-4.6,4.6-4.6h110.8v-9.2H195.2v-4.6c0-2.5,2.1-4.6,4.6-4.6h32.3h46.2h32.3c2.5,0,4.6,2.1,4.6,4.6v4.6H306z M269.1,200.9
		h-27.7v-46.2h27.7V200.9z M306,200.9h-27.7v-55.4h-46.2v55.4h-27.7v-64.7H306V200.9z"/>
	<path class="st10" d="M121.3,113.2h18.5c7.6,0,13.9,6.2,13.9,13.9h9.2c0-12.7-10.4-23.1-23.1-23.1h-4.6V90.1h-9.2V104h-4.6
		c-12.7,0-23.1,10.4-23.1,23.1s10.4,23.1,23.1,23.1h18.5c7.6,0,13.9,6.2,13.9,13.9c0,7.6-6.2,13.9-13.9,13.9h-18.5
		c-7.6,0-13.9-6.2-13.9-13.9h-9.2c0,12.7,10.4,23.1,23.1,23.1h4.6v13.9h9.2v-13.9h4.6c12.7,0,23.1-10.4,23.1-23.1
		c0-12.7-10.4-23.1-23.1-23.1h-18.5c-7.6,0-13.9-6.2-13.9-13.9S113.7,113.2,121.3,113.2z"/>
</g>
<g>
	<g>
		<rect x="125.1" y="263.3" class="st3" width="36.2" height="9.1"/>
		<path class="st3" d="M224.7,63.9V32.2c0-12.5-10.2-22.7-22.7-22.7H84.3c-12.5,0-22.7,10.2-22.7,22.7v235.6
			c0,12.5,10.2,22.7,22.7,22.7h117.8c12.5,0,22.7-10.2,22.7-22.7V227 M84.3,18.6h117.8c7.5,0,13.6,6.1,13.6,13.6v4.5h-145v-4.5
			C70.7,24.7,76.8,18.6,84.3,18.6z M202.1,281.4H84.3c-7.5,0-13.6-6.1-13.6-13.6v-13.6h145v13.6
			C215.7,275.3,209.6,281.4,202.1,281.4z M215.7,227v18.1h-145V45.8h145v18.1"/>
	</g>
	<rect x="138.7" y="68.5" class="st11" width="199.3" height="154"/>
	<g>
		<path class="st12" d="M179.4,82h-27.2v27.2h27.2V82z M170.4,100.2h-9.1v-9.1h9.1V100.2z"/>
		<path class="st12" d="M306.3,91.1h9.1v9.1h-9.1V91.1z"/>
		<path class="st12" d="M179.4,208.9v-27.2h-27.2v27.2H179.4z M161.3,190.8h9.1v9.1h-9.1V190.8z"/>
		<path class="st12" d="M279.1,172.7h18.1v36.2h27.2v-63.4h-45.3V172.7z M288.2,154.5h27.2v45.3h-9.1v-36.2h-18.1V154.5z"/>
		<path class="st12" d="M224.7,181.7h-18.1v27.2h45.3v-54.4h-27.2V181.7z M233.8,163.6h9.1v36.2h-27.2v-9.1h18.1V163.6z"/>
		<path class="st12" d="M261,208.9h27.2v-27.2H261V208.9z M270,190.8h9.1v9.1H270V190.8z"/>
		<rect x="152.3" y="145.5" class="st12" width="45.3" height="9.1"/>
		<path class="st12" d="M270,118.3h-27.2v27.2H270V118.3z M261,136.4h-9.1v-9.1h9.1V136.4z"/>
		<rect x="261" y="154.5" class="st12" width="9.1" height="18.1"/>
	</g>
</g>
<g class="st0">
	<path class="st13" d="M95.7,93.8V44.7c0-14.7,12.1-26.8,26.8-26.8h134.1c14.7,0,26.8,12.1,26.8,26.8v49.2v71.5H95.7V93.8z"/>
	<g class="st1">
		<path class="st3" d="M305.7,80.4c-3.8,0-11.7,2.6-17.9,5.6V44.7c0-17.2-14-31.3-31.3-31.3H122.5c-17.2,0-31.3,14-31.3,31.3V86
			c-6.2-2.9-14-5.6-17.9-5.6c-12.3,0-22.3,10-22.3,22.3c0,10.8,7.7,19.8,17.9,21.9v121.1v4.5v40.2h26.8v-40.2h187.7v40.2h26.8v-40.2
			v-4.5V124.7c10.2-2.1,17.9-11.1,17.9-21.9C328.1,90.4,318,80.4,305.7,80.4z M100.2,196.6v-22.3c0-2.5,2-4.5,4.5-4.5h76
			c2.5,0,4.5,2,4.5,4.5v22.3c0,2.5-2,4.5-4.5,4.5h-76C102.2,201.1,100.2,199.1,100.2,196.6z M194,196.6v-22.3c0-2.5,2-4.5,4.5-4.5
			h76c2.5,0,4.5,2,4.5,4.5v22.3c0,2.5-2,4.5-4.5,4.5h-76C196,201.1,194,199.1,194,196.6z M100.2,44.7c0-12.3,10-22.3,22.3-22.3
			h134.1c12.3,0,22.3,10,22.3,22.3V92v1.9v67.8c-1.4-0.5-2.9-0.8-4.5-0.8h-76c-3.4,0-6.6,1.3-8.9,3.5c-2.4-2.1-5.5-3.5-8.9-3.5h-76
			c-1.6,0-3.1,0.3-4.5,0.8V93.8V92V44.7z M86.8,281.5h-8.9v-31.3h8.9V281.5z M301.3,281.5h-8.9v-31.3h8.9V281.5z M305.7,116.2h-4.5
			v125.1H77.8V116.2h-4.5c-7.4,0-13.4-6-13.4-13.4s6-13.4,13.4-13.4c3.4,0,13.8,4.1,17.9,6.7v78.2v22.3V210h13.4h76h17.9h76h13.4
			v-13.4v-22.3V96c4.1-2.5,14.4-6.7,17.9-6.7c7.4,0,13.4,6,13.4,13.4S313.1,116.2,305.7,116.2z"/>
		<circle class="st12" cx="118.1" cy="49.1" r="4.5"/>
		<circle class="st12" cx="153.8" cy="49.1" r="4.5"/>
		<circle class="st12" cx="189.6" cy="49.1" r="4.5"/>
		<circle class="st12" cx="225.3" cy="49.1" r="4.5"/>
		<circle class="st12" cx="261" cy="49.1" r="4.5"/>
		<circle class="st12" cx="135.9" cy="76" r="4.5"/>
		<circle class="st12" cx="171.7" cy="76" r="4.5"/>
		<circle class="st12" cx="207.4" cy="76" r="4.5"/>
		<circle class="st12" cx="243.2" cy="76" r="4.5"/>
		<circle class="st12" cx="118.1" cy="102.8" r="4.5"/>
		<circle class="st12" cx="153.8" cy="102.8" r="4.5"/>
		<circle class="st12" cx="189.6" cy="102.8" r="4.5"/>
		<circle class="st12" cx="225.3" cy="102.8" r="4.5"/>
		<circle class="st12" cx="261" cy="102.8" r="4.5"/>
		<circle class="st12" cx="135.9" cy="129.6" r="4.5"/>
		<circle class="st12" cx="171.7" cy="129.6" r="4.5"/>
		<circle class="st12" cx="207.4" cy="129.6" r="4.5"/>
		<circle class="st12" cx="243.2" cy="129.6" r="4.5"/>
	</g>
</g>
</svg>
